<?xml version="1.0" standalone="no"?>
<!DOCTYPE svg PUBLIC "-//W3C//DTD SVG 1.1//EN" "http://www.w3.org/Graphics/SVG/1.1/DTD/svg11.dtd" >
<svg>
<metadata>
Created by FontForge 20090622 at Fri Mar  9 09:40:45 2018
 By deploy user
&#194;&#169; SoJa, Omen Type 2011
</metadata>
<defs>
<font id="iCielSoupofJustice" horiz-adv-x="598" >
  <font-face 
    font-family="iCiel Soup of Justice"
    font-weight="400"
    font-stretch="normal"
    units-per-em="1000"
    panose-1="0 0 0 0 0 0 0 0 0 0"
    ascent="800"
    descent="-200"
    x-height="610"
    cap-height="621"
    bbox="-121 -187 958.241 1082"
    underline-thickness="50"
    underline-position="-50"
    unicode-range="U+0020-U+1EF9"
  />
<missing-glyph horiz-adv-x="208" 
 />
    <glyph glyph-name=".notdef" horiz-adv-x="208" 
 />
    <glyph glyph-name=".null" horiz-adv-x="0" 
 />
    <glyph glyph-name="nonmarkingreturn" horiz-adv-x="208" 
 />
    <glyph glyph-name="space" unicode=" " horiz-adv-x="208" 
 />
    <glyph glyph-name="space" unicode="&#xa0;" horiz-adv-x="208" 
 />
    <glyph glyph-name="exclam" unicode="!" horiz-adv-x="302" 
d="M242 264l-185 -3l-1 379l198 22zM142 -3q40 0 74 39q32 38 32 81q0 40 -32 62q-29 19 -74 19q-40 0 -67 -37q-25 -35 -25 -80q0 -84 92 -84z" />
    <glyph glyph-name="quotedbl" unicode="&#x22;" horiz-adv-x="429" 
d="M188 410l-131 -3l-25 233l168 22zM234 635l147 -12l-12 -206l-147 -34z" />
    <glyph glyph-name="quotesingle" unicode="'" horiz-adv-x="224" 
d="M188 410l-131 -3l-25 233l168 22z" />
    <glyph glyph-name="parenleft" unicode="(" horiz-adv-x="421" 
d="M368 549q-61 -11 -99 -85q-35 -70 -35 -162q0 -96 40 -166q45 -80 128 -99l-31 -148q-159 -19 -255 118q-85 121 -89 306q-4 182 73 301q85 132 230 106z" />
    <glyph glyph-name="parenright" unicode=")" horiz-adv-x="421" 
d="M63 62q61 11 99 85q35 70 35 162q0 96 -40 166q-45 80 -128 99l31 148q159 19 255 -118q85 -121 89 -306q4 -182 -73 -301q-85 -132 -230 -106z" />
    <glyph glyph-name="plus" unicode="+" horiz-adv-x="493" 
d="M149 81l1 108l-113 2l-17 185l132 2l1 117l185 17l2 -131l115 2l-15 -198l-96 1l3 -120z" />
    <glyph glyph-name="comma" unicode="," horiz-adv-x="276" 
d="M75 161q27 37 67 37q45 0 74 -19q32 -22 32 -62q0 -18 -6 -36q-49 -125 -142 -155q12 37 17 73q-67 11 -67 82q0 45 25 80z" />
    <glyph glyph-name="hyphen" unicode="-" horiz-adv-x="390" 
d="M311 185l-222 4l-17 185l254 9z" />
    <glyph glyph-name="period" unicode="." horiz-adv-x="306" 
d="M75 161q27 37 67 37q45 0 74 -19q32 -22 32 -62q0 -43 -32 -81q-34 -39 -74 -39q-92 0 -92 84q0 45 25 80z" />
    <glyph glyph-name="zero" unicode="0" horiz-adv-x="529" 
d="M323 1q-61 -16 -153 13q-95 31 -136 160q-19 55 -25 125q-6 61 5 120q22 129 117 180q132 76 230 31q75 -34 120 -132q14 -40 21 -90q15 -109 -12 -232q-14 -68 -48 -106q-10 -12 -21 -19q-9 -7 -9 -6q-81 -41 -89 -44zM184 311q-3 -64 19 -88q17 -19 54 -19q33 4 47 27
q14 25 18 93q4 95 -74 89q-57 -14 -64 -102z" />
    <glyph glyph-name="one" unicode="1" horiz-adv-x="287" 
d="M246 3h-221l36 607l182 11z" />
    <glyph glyph-name="two" unicode="2" horiz-adv-x="494" 
d="M362 182l105 6l-23 -185l-414 4l117 271q66 130 -8 140q4 -1 -107 -18l-7 189q66 22 123 32q140 23 195 -12q77 -50 85 -141q2 -28 -3 -56z" />
    <glyph glyph-name="three" unicode="3" horiz-adv-x="454" 
d="M70 362q51 7 77 25q22 16 15 32q-6 17 -36 20q-33 3 -78 -15l-31 156q72 23 134 33q146 22 205 -27q43 -35 61 -123q22 -106 -52 -159q54 -15 70 -100q18 -97 -61 -175q-51 -51 -198 -51q-61 -1 -138 8l14 176q68 -19 93 -20q42 -3 42 30q1 34 -29 44q-26 8 -84 -1z" />
    <glyph glyph-name="four" unicode="4" horiz-adv-x="492" 
d="M45 603l176 -11l-18 -235l75 3l11 240l147 -2l22 -596l-184 2l8 167l-265 7z" />
    <glyph glyph-name="five" unicode="5" horiz-adv-x="501" 
d="M78 593l351 10l1 -47q0 -28 1 -42q2 -89 0 -87q1 -1 -81 5l-79 4l-4 -91q88 -6 131 -47q37 -36 50 -108q0 -28 -8 -55q-17 -59 -62 -90q-91 -66 -230 -50q-47 5 -85 18q-34 12 -28 16l7 104q38 -12 65 -16q69 -13 107 8q60 46 6 92q-52 44 -150 44z" />
    <glyph glyph-name="six" unicode="6" horiz-adv-x="487" 
d="M69 522q65 108 185 104q108 -5 166 -71q17 -19 31 -46q12 -22 14 -23l-90 -69q-30 30 -90 38q-63 7 -81 -26l-4 -50q45 35 117 17q71 -18 107 -74q17 -25 26 -53q21 -63 -5 -135q-14 -40 -48 -80q-27 -32 -32 -32l-36 -12q-20 -8 -35 -10q-43 -7 -128 10q-87 16 -126 93
q-19 34 -23 73q-6 29 -7 56q-5 71 14 179q15 63 45 111zM198 164q29 -48 78 -10q21 18 23 33q2 16 -15 47q-23 40 -73 2q-34 -32 -13 -72z" />
    <glyph glyph-name="seven" unicode="7" horiz-adv-x="443" 
d="M232 3l-203 4l161 419l-162 -7l4 186l429 -28z" />
    <glyph glyph-name="eight" unicode="8" horiz-adv-x="507" 
d="M296 613q110 -14 147 -65q17 -23 27 -49q21 -59 -6 -125q-11 -30 -37 -63q3 -1 13 -12q16 -22 27 -50q22 -61 -5 -125q-13 -38 -49 -74q-29 -30 -34 -30q-104 -29 -206 -11q-88 14 -131 85q-18 32 -24 68q14 93 59 141q-32 27 -48 73q-8 20 -9 37q21 146 120 181
q49 33 156 19zM198 146q31 -49 88 -10q24 16 27 32q3 18 -17 49q-28 39 -84 2q-38 -34 -14 -73zM207 399q24 -37 66 -7q18 12 19 24q2 12 -13 35q-21 30 -61 1q-28 -23 -11 -53z" />
    <glyph glyph-name="nine" unicode="9" horiz-adv-x="502" 
d="M414 97q-68 -110 -185 -104q50 -2 -211 140l90 69q30 -30 90 -37q63 -8 81 25l4 50q-45 -35 -116 -17q-72 18 -108 74q-17 25 -26 53q-21 64 5 135q14 40 48 80q27 32 32 32l36 12q20 8 35 10q43 7 128 -10q87 -17 126 -93q19 -34 23 -73q6 -29 7 -56q5 -71 -14 -179
q-15 -63 -45 -111zM285 455q-29 48 -78 10q-21 -18 -23 -32q-2 -17 15 -48q23 -40 73 -2q34 32 13 72z" />
    <glyph glyph-name="colon" unicode=":" horiz-adv-x="292" 
d="M77 197q27 37 67 37q45 0 74 -19q32 -22 32 -62q0 -43 -32 -81q-34 -39 -74 -39q-92 0 -92 84q0 45 25 80zM211 443q-27 -38 -67 -38q-45 0 -74 19q-32 22 -32 62q0 43 32 81q34 39 74 39q92 0 92 -84q0 -45 -25 -79z" />
    <glyph glyph-name="semicolon" unicode=";" horiz-adv-x="292" 
d="M211 443q-27 -38 -67 -38q-45 0 -74 19q-32 22 -32 62q0 43 32 81q34 39 74 39q92 0 92 -84q0 -45 -25 -79zM68 199q27 37 67 37q45 0 74 -19q32 -22 32 -62q0 -18 -6 -36q-49 -125 -142 -155q12 37 17 73q-67 11 -67 82q0 45 25 80z" />
    <glyph glyph-name="equal" unicode="=" horiz-adv-x="399" 
d="M292 101l-203 -11l-17 185l262 -2zM334 324l-273 -8l11 186l250 -8z" />
    <glyph glyph-name="question" unicode="?" horiz-adv-x="390" 
d="M60 241q0 73 61 128q57 52 54 69q3 58 -82 42q-31 -6 -55 -18q-23 -12 -15 -17l-10 205q46 4 97 1q107 -6 166 -42q76 -47 90 -122q9 -49 -4 -71q-31 -48 -96 -107q-37 -35 -28 -66zM142 -3q40 0 74 39q32 38 32 81q0 40 -32 62q-29 19 -74 19q-40 0 -67 -37
q-25 -35 -25 -80q0 -84 92 -84z" />
    <glyph glyph-name="A" unicode="A" 
d="M11 13l154 603l272 4l146 -608l-191 -18l-24 120h-140l-23 -120zM333 272l-39 187l-33 -190z" />
    <glyph glyph-name="B" unicode="B" horiz-adv-x="546" 
d="M40 614l259 10q46 -3 83 -18q87 -32 104 -114q13 -68 -16 -129q-13 -27 -33 -48q100 -72 82 -180q-13 -76 -75 -112q-27 -15 -58 -18l-368 10zM222 413l66 -2q38 -1 49 51q-4 42 -54 49l-58 -4zM203 133l91 3q49 2 54 35q-8 54 -48 58l-91 7z" />
    <glyph glyph-name="C" unicode="C" horiz-adv-x="587" 
d="M563 83q0 -15 -100 -52q-124 -45 -241 -17q-124 31 -177 160q-24 54 -32 125q-7 63 6 120q33 132 153 180q93 40 233 22q56 -7 122 -25l-56 -185q-18 15 -44 26q-57 23 -110 3q-40 -13 -65 -49q-30 -41 -24 -93q12 -80 66 -94q53 -13 140 41z" />
    <glyph glyph-name="D" unicode="D" horiz-adv-x="545" 
d="M34 638l285 -7q127 -11 176 -115q37 -78 32 -226q-23 -171 -80 -229q-52 -54 -178 -52l-251 4zM242 209q50 6 65 15q38 21 50 83q-4 81 -6 88q-12 47 -65 71l-46 2q-7 1 -21 1l-24 1l-11 -258q21 0 29 -1z" />
    <glyph glyph-name="E" unicode="E" horiz-adv-x="493" 
d="M465 8l-452 -4l23 609l420 3l-5 -88q-3 -67 -3 -87l-208 -1v-55l155 2l-14 -150l-148 -5l-3 -48l61 1q36 0 54 1q119 0 117 2z" />
    <glyph glyph-name="F" unicode="F" horiz-adv-x="567" 
d="M41 15l39 578l450 22l6 -75q6 -76 4 -74q0 2 -130 -17q-57 -7 -129 -18l-3 -75l147 -5l-16 -102l-135 -2l9 -218z" />
    <glyph glyph-name="G" unicode="G" horiz-adv-x="591" 
d="M566 84q-162 -111 -330 -70q-126 32 -178 154q-25 56 -33 120q0 112 18 165q32 98 143 173q118 48 249 14q54 -14 106 -44l-56 -185q-18 15 -44 26q-57 23 -110 3q-40 -13 -65 -49q-30 -41 -24 -93q18 -121 124 -91l-10 98q8 1 26 5l145 27z" />
    <glyph glyph-name="H" unicode="H" horiz-adv-x="590" 
d="M347 617l190 -17l25 -598l-216 -5l4 243h-99l-11 -240l-201 3l34 620l180 -16l-2 -223l95 -1z" />
    <glyph glyph-name="I" unicode="I" horiz-adv-x="287" 
d="M246 3h-221l36 607l182 11z" />
    <glyph glyph-name="J" unicode="J" horiz-adv-x="479" 
d="M434 208q-7 -55 -31 -98q-54 -97 -166 -101q-137 -3 -192 97q-17 31 -24 68q-5 31 -2 31l154 23q-5 -17 7 -35q11 -17 29 -24q46 -17 51 54l20 398l182 -11z" />
    <glyph glyph-name="K" unicode="K" horiz-adv-x="525" 
d="M28 621l182 -11l6 -139l171 153q44 -47 66 -73q67 -75 64 -75l-208 -184l219 -168l-65 -70q-64 -70 -62 -70l-159 114l4 -95h-221z" />
    <glyph glyph-name="L" unicode="L" horiz-adv-x="465" 
d="M60 7l-13 626l196 -12l20 -428l153 -4l27 -181z" />
    <glyph glyph-name="M" unicode="M" horiz-adv-x="707" 
d="M452 607l180 16l34 -620l-216 9l4 228l-46 -147l-102 3l-55 144l-4 -231l-208 -7l25 598l190 17l100 -238z" />
    <glyph glyph-name="N" unicode="N" horiz-adv-x="576" 
d="M333 617l190 -17l25 -598l-216 -5l-114 290l8 -287l-201 3l34 620l180 -16l102 -257z" />
    <glyph glyph-name="O" unicode="O" horiz-adv-x="678" 
d="M420 2q-78 -17 -198 12q-124 31 -177 160q-24 54 -32 125q-7 63 6 120q33 132 153 180q173 76 300 31q96 -34 156 -132q17 -43 26 -90q21 -107 -15 -232q-20 -68 -62 -106q-28 -25 -40 -25q-113 -42 -117 -43zM254 393q-27 -39 -21 -92q11 -74 56 -93q33 -14 97 0
q55 17 73 48q20 35 9 113q-8 56 -53 73q-39 14 -98 -2q-40 -13 -63 -47z" />
    <glyph glyph-name="P" unicode="P" horiz-adv-x="490" 
d="M245 130l-1 -126l-219 -1l31 634l153 -10q174 -13 241 -117q14 -31 20 -68q14 -85 -11 -175q-25 -83 -77 -100q-99 -37 -137 -37zM329 413q-26 53 -86 55l1 -182q15 2 23 5q73 22 62 122z" />
    <glyph glyph-name="Q" unicode="Q" horiz-adv-x="690" 
d="M99 70q-42 38 -62 106q-36 123 -15 232q9 47 26 90q60 98 156 132q127 45 300 -31q120 -50 153 -180q14 -57 6 -120q-2 -22 -6 -44q-9 -47 -33 -97l111 -81l-163 -127l-66 82q-24 -12 -52 -18q-120 -29 -198 -12q-4 1 -117 43q-12 0 -40 25zM441 293l2 8q6 53 -21 92
q-23 34 -63 47q-42 10 -82 -5q-47 -18 -69 -66q-11 -131 82 -161q48 -12 80 -5l-51 65l61 70z" />
    <glyph glyph-name="R" unicode="R" horiz-adv-x="482" 
d="M488 123l-113 -138l-139 116l-1 -97l-198 8l15 608l148 7q180 10 251 -99q30 -49 25 -150q-6 -123 -77 -178zM306 422q-20 44 -72 46l1 -152l10 2q6 2 9 2q59 20 52 102z" />
    <glyph glyph-name="S" unicode="S" horiz-adv-x="482" 
d="M54 356l-4 15q-5 29 -3 58q7 93 85 140q62 38 172 44q53 3 100 -1l-11 -212q9 4 -16 16q-24 13 -55 19q-88 17 -85 -43q-3 -17 29 -35l72 -36q108 -56 110 -131q0 -28 -8 -55q-17 -59 -62 -90q-91 -66 -230 -50q-47 5 -85 18q-34 12 -28 16l11 135q25 -7 52 -9
q59 -6 95 15q22 15 9 30q-7 8 -46 32q-89 56 -100 120q0 -2 -2 4z" />
    <glyph glyph-name="T" unicode="T" horiz-adv-x="470" 
d="M431 501l-83 -5l3 -493h-221l30 482l-132 -7l5 146l394 20z" />
    <glyph glyph-name="U" unicode="U" horiz-adv-x="550" 
d="M509 205q0 -69 -49 -130q-64 -81 -179 -70q-146 14 -204 109q-27 44 -31 94l-28 402l207 11l20 -372q10 -55 48 -51q39 4 39 56v369l190 -9z" />
    <glyph glyph-name="V" unicode="V" horiz-adv-x="586" 
d="M23 614l208 9l51 -397l56 395l216 -11l-101 -614l-313 -9z" />
    <glyph glyph-name="W" unicode="W" horiz-adv-x="703" 
d="M332 222l-66 -226l-182 -9l-66 623h187l25 -239l20 142l159 -3l22 -153l46 253l197 -20l-71 -594l-218 16z" />
    <glyph glyph-name="X" unicode="X" horiz-adv-x="594" 
d="M560 65l-154 -97l-108 161l-94 -161l-180 128l139 201l-139 215l180 128l94 -176l108 176l154 -97l-144 -246z" />
    <glyph glyph-name="Y" unicode="Y" horiz-adv-x="546" 
d="M399 175l-4 -171l-243 8l-6 163l-149 439l209 12l66 -251l74 263l191 -34z" />
    <glyph glyph-name="Z" unicode="Z" horiz-adv-x="572" 
d="M497 3l-467 4l185 402l-198 5v203l535 -18l-202 -418l170 7z" />
    <glyph glyph-name="grave" unicode="`" horiz-adv-x="0" 
d="M124 565l-44 -78l-201 103l41 109z" />
    <glyph glyph-name="a" unicode="a" 
d="M11 13l154 603l272 4l146 -608l-191 -18l-24 120h-140l-23 -120zM333 272l-39 187l-33 -190z" />
    <glyph glyph-name="b" unicode="b" horiz-adv-x="546" 
d="M40 614l259 10q46 -3 83 -18q87 -32 104 -114q13 -68 -16 -129q-13 -27 -33 -48q100 -72 82 -180q-13 -76 -75 -112q-27 -15 -58 -18l-368 10zM222 413l66 -2q38 -1 49 51q-4 42 -54 49l-58 -4zM203 133l91 3q49 2 54 35q-8 54 -48 58l-91 7z" />
    <glyph glyph-name="c" unicode="c" horiz-adv-x="587" 
d="M563 83q0 -15 -100 -52q-124 -45 -241 -17q-124 31 -177 160q-24 54 -32 125q-7 63 6 120q33 132 153 180q93 40 233 22q56 -7 122 -25l-56 -185q-18 15 -44 26q-57 23 -110 3q-40 -13 -65 -49q-30 -41 -24 -93q12 -80 66 -94q53 -13 140 41z" />
    <glyph glyph-name="d" unicode="d" horiz-adv-x="545" 
d="M34 638l285 -7q127 -11 176 -115q37 -78 32 -226q-23 -171 -80 -229q-52 -54 -178 -52l-251 4zM242 209q50 6 65 15q38 21 50 83q-4 81 -6 88q-12 47 -65 71l-46 2q-7 1 -21 1l-24 1l-11 -258q21 0 29 -1z" />
    <glyph glyph-name="e" unicode="e" horiz-adv-x="493" 
d="M465 8l-452 -4l23 609l420 3l-5 -88q-3 -67 -3 -87l-208 -1v-55l155 2l-14 -150l-148 -5l-3 -48l61 1q36 0 54 1q119 0 117 2z" />
    <glyph glyph-name="f" unicode="f" horiz-adv-x="567" 
d="M41 15l39 578l450 22l6 -75q6 -76 4 -74q0 2 -130 -17q-57 -7 -129 -18l-3 -75l147 -5l-16 -102l-135 -2l9 -218z" />
    <glyph glyph-name="g" unicode="g" horiz-adv-x="591" 
d="M566 84q-162 -111 -330 -70q-126 32 -178 154q-25 56 -33 120q0 112 18 165q32 98 143 173q118 48 249 14q54 -14 106 -44l-56 -185q-18 15 -44 26q-57 23 -110 3q-40 -13 -65 -49q-30 -41 -24 -93q18 -121 124 -91l-10 98q8 1 26 5l145 27z" />
    <glyph glyph-name="h" unicode="h" horiz-adv-x="590" 
d="M347 617l190 -17l25 -598l-216 -5l4 243h-99l-11 -240l-201 3l34 620l180 -16l-2 -223l95 -1z" />
    <glyph glyph-name="i" unicode="i" horiz-adv-x="287" 
d="M246 3h-221l36 607l182 11z" />
    <glyph glyph-name="j" unicode="j" horiz-adv-x="479" 
d="M434 208q-7 -55 -31 -98q-54 -97 -166 -101q-137 -3 -192 97q-17 31 -24 68q-5 31 -2 31l154 23q-5 -17 7 -35q11 -17 29 -24q46 -17 51 54l20 398l182 -11z" />
    <glyph glyph-name="k" unicode="k" horiz-adv-x="525" 
d="M28 621l182 -11l6 -139l171 153q44 -47 66 -73q67 -75 64 -75l-208 -184l219 -168l-65 -70q-64 -70 -62 -70l-159 114l4 -95h-221z" />
    <glyph glyph-name="l" unicode="l" horiz-adv-x="465" 
d="M60 7l-13 626l196 -12l20 -428l153 -4l27 -181z" />
    <glyph glyph-name="m" unicode="m" horiz-adv-x="707" 
d="M452 607l180 16l34 -620l-216 9l4 228l-46 -147l-102 3l-55 144l-4 -231l-208 -7l25 598l190 17l100 -238z" />
    <glyph glyph-name="n" unicode="n" horiz-adv-x="576" 
d="M333 617l190 -17l25 -598l-216 -5l-114 290l8 -287l-201 3l34 620l180 -16l102 -257z" />
    <glyph glyph-name="o" unicode="o" horiz-adv-x="678" 
d="M420 2q-78 -17 -198 12q-124 31 -177 160q-24 54 -32 125q-7 63 6 120q33 132 153 180q173 76 300 31q96 -34 156 -132q17 -43 26 -90q21 -107 -15 -232q-20 -68 -62 -106q-28 -25 -40 -25q-113 -42 -117 -43zM254 393q-27 -39 -21 -92q11 -74 56 -93q33 -14 97 0
q55 17 73 48q20 35 9 113q-8 56 -53 73q-39 14 -98 -2q-40 -13 -63 -47z" />
    <glyph glyph-name="p" unicode="p" horiz-adv-x="490" 
d="M245 130l-1 -126l-219 -1l31 634l153 -10q174 -13 241 -117q14 -31 20 -68q14 -85 -11 -175q-25 -83 -77 -100q-99 -37 -137 -37zM329 413q-26 53 -86 55l1 -182q15 2 23 5q73 22 62 122z" />
    <glyph glyph-name="q" unicode="q" horiz-adv-x="690" 
d="M99 70q-42 38 -62 106q-36 123 -15 232q9 47 26 90q60 98 156 132q127 45 300 -31q120 -50 153 -180q14 -57 6 -120q-2 -22 -6 -44q-9 -47 -33 -97l111 -81l-163 -127l-66 82q-24 -12 -52 -18q-120 -29 -198 -12q-4 1 -117 43q-12 0 -40 25zM441 293l2 8q6 53 -21 92
q-23 34 -63 47q-42 10 -82 -5q-47 -18 -69 -66q-11 -131 82 -161q48 -12 80 -5l-51 65l61 70z" />
    <glyph glyph-name="r" unicode="r" horiz-adv-x="482" 
d="M488 123l-113 -138l-139 116l-1 -97l-198 8l15 608l148 7q180 10 251 -99q30 -49 25 -150q-6 -123 -77 -178zM306 422q-20 44 -72 46l1 -152l10 2q6 2 9 2q59 20 52 102z" />
    <glyph glyph-name="s" unicode="s" horiz-adv-x="482" 
d="M54 356l-4 15q-5 29 -3 58q7 93 85 140q62 38 172 44q53 3 100 -1l-11 -212q9 4 -16 16q-24 13 -55 19q-88 17 -85 -43q-3 -17 29 -35l72 -36q108 -56 110 -131q0 -28 -8 -55q-17 -59 -62 -90q-91 -66 -230 -50q-47 5 -85 18q-34 12 -28 16l11 135q25 -7 52 -9
q59 -6 95 15q22 15 9 30q-7 8 -46 32q-89 56 -100 120q0 -2 -2 4z" />
    <glyph glyph-name="t" unicode="t" horiz-adv-x="470" 
d="M431 501l-83 -5l3 -493h-221l30 482l-132 -7l5 146l394 20z" />
    <glyph glyph-name="u" unicode="u" horiz-adv-x="550" 
d="M509 205q0 -69 -49 -130q-64 -81 -179 -70q-146 14 -204 109q-27 44 -31 94l-28 402l207 11l20 -372q10 -55 48 -51q39 4 39 56v369l190 -9z" />
    <glyph glyph-name="v" unicode="v" horiz-adv-x="586" 
d="M23 614l208 9l51 -397l56 395l216 -11l-101 -614l-313 -9z" />
    <glyph glyph-name="w" unicode="w" horiz-adv-x="703" 
d="M332 222l-66 -226l-182 -9l-66 623h187l25 -239l20 142l159 -3l22 -153l46 253l197 -20l-71 -594l-218 16z" />
    <glyph glyph-name="x" unicode="x" horiz-adv-x="594" 
d="M560 65l-154 -97l-108 161l-94 -161l-180 128l139 201l-139 215l180 128l94 -176l108 176l154 -97l-144 -246z" />
    <glyph glyph-name="y" unicode="y" horiz-adv-x="546" 
d="M399 175l-4 -171l-243 8l-6 163l-149 439l209 12l66 -251l74 263l191 -34z" />
    <glyph glyph-name="z" unicode="z" horiz-adv-x="572" 
d="M497 3l-467 4l185 402l-198 5v203l535 -18l-202 -418l170 7z" />
    <glyph glyph-name="copyright" unicode="&#xa9;" horiz-adv-x="736" 
d="M30 320q1 138 98 235t235 98q137 0 233 -96t96 -233q-1 -138 -98 -235t-235 -98q-137 0 -233 96t-96 233zM194 255q23 0 39 17q17 17 17 42q0 24 -17 40q-16 16 -39 16q-24 0 -40 -16q-17 -16 -17 -40q0 -25 17 -42q16 -17 40 -17zM496 174q-133 -133 -257 -8
q-26 15 -31 -12q-5 -28 15 -48q55 -57 147 -46q90 10 162 82t83 162q10 89 -47 147q-21 27 -47 16q-25 -10 -5 -33q119 -119 -20 -260zM390 446q23 0 40 17q17 16 17 40q0 23 -17 39q-17 17 -40 17q-24 0 -41 -17q-16 -16 -16 -39q0 -24 16 -40q17 -17 41 -17zM367 249
q24 0 41 17q17 16 17 41q0 24 -17 40q-17 17 -41 17t-41 -17q-16 -16 -16 -40q0 -25 16 -41q17 -17 41 -17z" />
    <glyph glyph-name="guillemotleft" unicode="&#xab;" horiz-adv-x="0" 
 />
    <glyph glyph-name="acute" unicode="&#xb4;" horiz-adv-x="0" 
d="M46 481l-48 75l186 129l76 -87z" />
    <glyph glyph-name="guillemotright" unicode="&#xbb;" horiz-adv-x="0" 
 />
    <glyph glyph-name="Agrave" unicode="&#xc0;" 
d="M11 13l154 603l272 4l146 -608l-191 -18l-24 120h-140l-23 -120zM333 272l-39 187l-33 -190zM421 765l-44 -78l-201 103l41 109z" />
    <glyph glyph-name="Aacute" unicode="&#xc1;" 
d="M11 13l154 603l272 4l146 -608l-191 -18l-24 120h-140l-23 -120zM333 272l-39 187l-33 -190zM258 681l-48 75l186 129l76 -87z" />
    <glyph glyph-name="Acircumflex" unicode="&#xc2;" 
d="M11 13l154 603l272 4l146 -608l-191 -18l-24 120h-140l-23 -120zM333 272l-39 187l-33 -190zM303 737l-89 -73l-95 49l141 122l82 1l148 -116l-102 -60z" />
    <glyph glyph-name="Atilde" unicode="&#xc3;" 
d="M11 13l154 603l272 4l146 -608l-191 -18l-24 120h-140l-23 -120zM333 272l-39 187l-33 -190zM357 791q14 2 18 30l2 11l88 2l2 -8l-21 -86q-29 -42 -66 -48q-63 -7 -126 46q-6 -1 -8 -23v-6l-91 -9q0 13 6 46q3 18 11 42q19 49 59 55l12 1q50 -1 114 -53z" />
    <glyph glyph-name="Egrave" unicode="&#xc8;" horiz-adv-x="493" 
d="M465 8l-452 -4l23 609l420 3l-5 -88q-3 -67 -3 -87l-208 -1v-55l155 2l-14 -150l-148 -5l-3 -48l61 1q36 0 54 1q119 0 117 2zM321 765l-44 -78l-201 103l41 109z" />
    <glyph glyph-name="Eacute" unicode="&#xc9;" horiz-adv-x="493" 
d="M465 8l-452 -4l23 609l420 3l-5 -88q-3 -67 -3 -87l-208 -1v-55l155 2l-14 -150l-148 -5l-3 -48l61 1q36 0 54 1q119 0 117 2zM200 681l-48 75l186 129l76 -87z" />
    <glyph glyph-name="Ecircumflex" unicode="&#xca;" horiz-adv-x="493" 
d="M465 8l-452 -4l23 609l420 3l-5 -88q-3 -67 -3 -87l-208 -1v-55l155 2l-14 -150l-148 -5l-3 -48l61 1q36 0 54 1q119 0 117 2zM238 744l-89 -73l-95 49l141 122l82 1l148 -116l-102 -60z" />
    <glyph glyph-name="Igrave" unicode="&#xcc;" horiz-adv-x="322" 
d="M246 3h-221l36 607l182 11zM217 765l-44 -78l-201 103l41 109z" />
    <glyph glyph-name="Iacute" unicode="&#xcd;" horiz-adv-x="287" 
d="M246 3h-221l36 607l182 11zM96 681l-48 75l186 129l76 -87z" />
    <glyph glyph-name="Ograve" unicode="&#xd2;" horiz-adv-x="678" 
d="M415 2q-78 -17 -198 12q-124 31 -177 160q-24 54 -32 125q-7 63 6 120q33 132 153 180q173 76 300 31q96 -34 156 -132q17 -43 26 -90q21 -107 -15 -232q-20 -68 -62 -106q-28 -25 -40 -25q-113 -42 -117 -43zM249 393q-27 -39 -21 -92q11 -74 56 -93q33 -14 97 0
q55 17 73 48q20 35 9 113q-8 56 -53 73q-39 14 -98 -2q-40 -13 -63 -47zM423 765l-44 -78l-201 103l41 109z" />
    <glyph glyph-name="Oacute" unicode="&#xd3;" horiz-adv-x="678" 
d="M415 2q-78 -17 -198 12q-124 31 -177 160q-24 54 -32 125q-7 63 6 120q33 132 153 180q173 76 300 31q96 -34 156 -132q17 -43 26 -90q21 -107 -15 -232q-20 -68 -62 -106q-28 -25 -40 -25q-113 -42 -117 -43zM249 393q-27 -39 -21 -92q11 -74 56 -93q33 -14 97 0
q55 17 73 48q20 35 9 113q-8 56 -53 73q-39 14 -98 -2q-40 -13 -63 -47zM302 681l-48 75l186 129l76 -87z" />
    <glyph glyph-name="Ocircumflex" unicode="&#xd4;" horiz-adv-x="678" 
d="M415 2q-78 -17 -198 12q-124 31 -177 160q-24 54 -32 125q-7 63 6 120q33 132 153 180q173 76 300 31q96 -34 156 -132q17 -43 26 -90q21 -107 -15 -232q-20 -68 -62 -106q-28 -25 -40 -25q-113 -42 -117 -43zM249 393q-27 -39 -21 -92q11 -74 56 -93q33 -14 97 0
q55 17 73 48q20 35 9 113q-8 56 -53 73q-39 14 -98 -2q-40 -13 -63 -47zM339 744l-89 -73l-95 49l141 122l82 1l148 -116l-102 -60z" />
    <glyph glyph-name="Otilde" unicode="&#xd5;" horiz-adv-x="678" 
d="M415 2q-78 -17 -198 12q-124 31 -177 160q-24 54 -32 125q-7 63 6 120q33 132 153 180q173 76 300 31q96 -34 156 -132q17 -43 26 -90q21 -107 -15 -232q-20 -68 -62 -106q-28 -25 -40 -25q-113 -42 -117 -43zM249 393q-27 -39 -21 -92q11 -74 56 -93q33 -14 97 0
q55 17 73 48q20 35 9 113q-8 56 -53 73q-39 14 -98 -2q-40 -13 -63 -47zM387 806q14 2 18 30l2 11l88 2l2 -8l-21 -86q-29 -42 -66 -48q-63 -7 -126 46q-6 -1 -8 -23v-6l-91 -9q0 13 6 46q3 18 11 42q19 49 59 55l12 1q50 -1 114 -53z" />
    <glyph glyph-name="Ugrave" unicode="&#xd9;" horiz-adv-x="550" 
d="M509 205q0 -69 -49 -130q-64 -81 -179 -70q-146 14 -204 109q-27 44 -31 94l-28 402l207 11l20 -372q10 -55 48 -51q39 4 39 56v369l190 -9zM352 765l-44 -78l-201 103l41 109z" />
    <glyph glyph-name="Uacute" unicode="&#xda;" horiz-adv-x="550" 
d="M509 205q0 -69 -49 -130q-64 -81 -179 -70q-146 14 -204 109q-27 44 -31 94l-28 402l207 11l20 -372q10 -55 48 -51q39 4 39 56v369l190 -9zM231 681l-48 75l186 129l76 -87z" />
    <glyph glyph-name="Yacute" unicode="&#xdd;" horiz-adv-x="546" 
d="M399 175l-4 -171l-243 8l-6 163l-149 439l209 12l66 -251l74 263l191 -34zM228 681l-48 75l186 129l76 -87z" />
    <glyph glyph-name="agrave" unicode="&#xe0;" 
d="M11 13l154 603l272 4l146 -608l-191 -18l-24 120h-140l-23 -120zM333 272l-39 187l-33 -190zM421 765l-44 -78l-201 103l41 109z" />
    <glyph glyph-name="aacute" unicode="&#xe1;" 
d="M11 13l154 603l272 4l146 -608l-191 -18l-24 120h-140l-23 -120zM333 272l-39 187l-33 -190zM257 681l-47 75l185 129l77 -87z" />
    <glyph glyph-name="acircumflex" unicode="&#xe2;" 
d="M11 13l154 603l272 4l146 -608l-191 -18l-24 120h-140l-23 -120zM333 272l-39 187l-33 -190zM303 737l-89 -73l-95 49l141 122l82 1l148 -116l-102 -60z" />
    <glyph glyph-name="atilde" unicode="&#xe3;" 
d="M11 13l154 603l272 4l146 -608l-191 -18l-24 120h-140l-23 -120zM333 272l-39 187l-33 -190zM357 791q14 2 18 30l2 11l88 2l2 -8l-21 -86q-29 -42 -66 -48q-63 -7 -126 46q-6 -1 -8 -23v-6l-91 -9q0 13 6 46q3 18 11 42q19 49 59 55l12 1q50 -1 114 -53z" />
    <glyph glyph-name="egrave" unicode="&#xe8;" horiz-adv-x="493" 
d="M465 8l-452 -4l23 609l420 3l-5 -88q-3 -67 -3 -87l-208 -1v-55l155 2l-14 -150l-148 -5l-3 -48l61 1q36 0 54 1q119 0 117 2zM321 765l-44 -78l-201 103l41 109z" />
    <glyph glyph-name="eacute" unicode="&#xe9;" horiz-adv-x="493" 
d="M465 8l-452 -4l23 609l420 3l-5 -88q-3 -67 -3 -87l-208 -1v-55l155 2l-14 -150l-148 -5l-3 -48l61 1q36 0 54 1q119 0 117 2zM199 681l-47 75l185 129l77 -87z" />
    <glyph glyph-name="ecircumflex" unicode="&#xea;" horiz-adv-x="493" 
d="M465 8l-452 -4l23 609l420 3l-5 -88q-3 -67 -3 -87l-208 -1v-55l155 2l-14 -150l-148 -5l-3 -48l61 1q36 0 54 1q119 0 117 2zM238 744l-89 -73l-95 49l141 122l81 1l149 -116l-102 -60z" />
    <glyph glyph-name="igrave" unicode="&#xec;" horiz-adv-x="331" 
d="M299 3h-221l36 607l182 11zM270 765l-44 -78l-201 103l41 109z" />
    <glyph glyph-name="iacute" unicode="&#xed;" horiz-adv-x="287" 
d="M246 3h-221l36 607l182 11zM96 681l-48 75l186 129l76 -87z" />
    <glyph glyph-name="ograve" unicode="&#xf2;" horiz-adv-x="678" 
d="M420 2q-78 -17 -198 12q-124 31 -177 160q-24 54 -32 125q-7 63 6 120q33 132 153 180q173 76 300 31q96 -34 156 -132q17 -43 26 -90q21 -107 -15 -232q-20 -68 -62 -106q-28 -25 -40 -25q-113 -42 -117 -43zM254 393q-27 -39 -21 -92q11 -74 56 -93q33 -14 97 0
q55 17 73 48q20 35 9 113q-8 56 -53 73q-39 14 -98 -2q-40 -13 -63 -47zM418 765l-44 -78l-201 103l41 109z" />
    <glyph glyph-name="oacute" unicode="&#xf3;" horiz-adv-x="678" 
d="M420 2q-78 -17 -198 12q-124 31 -177 160q-24 54 -32 125q-7 63 6 120q33 132 153 180q173 76 300 31q96 -34 156 -132q17 -43 26 -90q21 -107 -15 -232q-20 -68 -62 -106q-28 -25 -40 -25q-113 -42 -117 -43zM254 393q-27 -39 -21 -92q11 -74 56 -93q33 -14 97 0
q55 17 73 48q20 35 9 113q-8 56 -53 73q-39 14 -98 -2q-40 -13 -63 -47zM296 681l-47 75l185 129l77 -87z" />
    <glyph glyph-name="ocircumflex" unicode="&#xf4;" horiz-adv-x="678" 
d="M420 2q-78 -17 -198 12q-124 31 -177 160q-24 54 -32 125q-7 63 6 120q33 132 153 180q173 76 300 31q96 -34 156 -132q17 -43 26 -90q21 -107 -15 -232q-20 -68 -62 -106q-28 -25 -40 -25q-113 -42 -117 -43zM254 393q-27 -39 -21 -92q11 -74 56 -93q33 -14 97 0
q55 17 73 48q20 35 9 113q-8 56 -53 73q-39 14 -98 -2q-40 -13 -63 -47zM335 744l-89 -73l-96 49l142 122l81 1l148 -116l-101 -60z" />
    <glyph glyph-name="otilde" unicode="&#xf5;" horiz-adv-x="678" 
d="M420 2q-78 -17 -198 12q-124 31 -177 160q-24 54 -32 125q-7 63 6 120q33 132 153 180q173 76 300 31q96 -34 156 -132q17 -43 26 -90q21 -107 -15 -232q-20 -68 -62 -106q-28 -25 -40 -25q-113 -42 -117 -43zM254 393q-27 -39 -21 -92q11 -74 56 -93q33 -14 97 0
q55 17 73 48q20 35 9 113q-8 56 -53 73q-39 14 -98 -2q-40 -13 -63 -47zM382 806q14 2 18 30l2 11l89 2l1 -8l-21 -86q-29 -42 -66 -48q-63 -7 -126 46q-6 -1 -8 -23v-6l-91 -9q0 13 6 46q3 18 11 42q19 49 59 55l12 1q50 -1 114 -53z" />
    <glyph glyph-name="ugrave" unicode="&#xf9;" horiz-adv-x="550" 
d="M509 205q0 -69 -49 -130q-64 -81 -179 -70q-146 14 -204 109q-27 44 -31 94l-28 402l207 11l20 -372q10 -55 48 -51q39 4 39 56v369l190 -9zM352 765l-44 -78l-201 103l41 109z" />
    <glyph glyph-name="uacute" unicode="&#xfa;" horiz-adv-x="550" 
d="M509 205q0 -69 -49 -130q-64 -81 -179 -70q-146 14 -204 109q-27 44 -31 94l-28 402l207 11l20 -372q10 -55 48 -51q39 4 39 56v369l190 -9zM230 681l-47 75l185 129l77 -87z" />
    <glyph glyph-name="yacute" unicode="&#xfd;" horiz-adv-x="546" 
d="M399 175l-4 -171l-243 8l-6 163l-149 439l209 12l66 -251l74 263l191 -34zM227 681l-47 75l185 129l77 -87z" />
    <glyph glyph-name="Abreve" unicode="&#x102;" 
d="M11 13l154 603l272 4l146 -608l-191 -18l-24 120h-140l-23 -120zM333 272l-39 187l-33 -190zM221 835q3 -27 26 -44q21 -15 49 -15q29 0 51 18q24 20 29 56l45 -13q6 -71 -35 -113q-37 -38 -93 -40t-92 32q-40 38 -32 102z" />
    <glyph glyph-name="abreve" unicode="&#x103;" 
d="M11 13l154 603l272 4l146 -608l-191 -18l-24 120h-140l-23 -120zM333 272l-39 187l-33 -190zM221 835q3 -27 25 -43t50 -16q29 0 50 18q24 20 30 57l45 -14q6 -70 -36 -113q-36 -37 -92 -39t-92 31q-40 38 -32 102z" />
    <glyph glyph-name="Dcroat" unicode="&#x110;" horiz-adv-x="545" 
d="M186 267l-2 -55q21 0 29 -1l29 -2q50 6 65 15q38 21 50 83q-4 81 -6 88q-12 47 -65 71l-46 2q-7 1 -21 1l-24 1l-3 -69l65 1l-18 -136zM28 397l6 241l285 -7q127 -11 176 -115q37 -78 32 -226q-23 -171 -80 -229q-52 -54 -178 -52l-251 4l7 255l-51 1l-20 127z" />
    <glyph glyph-name="dcroat" unicode="&#x111;" horiz-adv-x="545" 
d="M186 267l-2 -55q21 0 29 -1l29 -2q50 6 65 15q38 21 50 83q-4 81 -6 88q-12 47 -65 71l-46 2q-7 1 -21 1l-24 1l-3 -69l65 1l-18 -136zM28 397l6 241l285 -7q127 -11 176 -115q37 -78 32 -226q-23 -171 -80 -229q-52 -54 -178 -52l-251 4l7 255l-51 1l-20 127z" />
    <glyph glyph-name="Itilde" unicode="&#x128;" horiz-adv-x="287" 
d="M246 3h-221l36 607l182 11zM182 806q14 2 18 30l2 11l88 2l2 -8l-21 -86q-29 -42 -66 -48q-63 -7 -126 46q-6 -1 -8 -23v-6l-91 -9q0 13 6 46q3 18 11 42q19 49 59 55l12 1q50 -1 114 -53z" />
    <glyph glyph-name="itilde" unicode="&#x129;" horiz-adv-x="287" 
d="M292 3h-221l36 607l182 11zM227 806q15 2 19 30l2 11l88 2l1 -8l-21 -86q-29 -42 -66 -48q-62 -7 -125 46q-6 -1 -8 -23v-6l-91 -9q-1 13 6 46q3 18 11 42q19 49 58 55l13 1q49 -1 113 -53z" />
    <glyph glyph-name="Utilde" unicode="&#x168;" horiz-adv-x="550" 
d="M509 205q0 -69 -49 -130q-64 -81 -179 -70q-146 14 -204 109q-27 44 -31 94l-28 402l207 11l20 -372q10 -55 48 -51q39 4 39 56v369l190 -9zM316 806q14 2 18 30l2 11l88 2l2 -8l-21 -86q-29 -42 -66 -48q-63 -7 -126 46q-6 -1 -8 -23v-6l-91 -9q0 13 6 46q3 18 11 42
q19 49 59 55l12 1q50 -1 114 -53z" />
    <glyph glyph-name="utilde" unicode="&#x169;" horiz-adv-x="550" 
d="M509 205q0 -69 -49 -130q-64 -81 -179 -70q-146 14 -204 109q-27 44 -31 94l-28 402l207 11l20 -372q10 -55 48 -51q39 4 39 56v369l190 -9zM316 806q14 2 18 30l2 11l89 2l1 -8l-21 -86q-29 -42 -66 -48q-62 -7 -125 46q-7 -1 -9 -23v-6l-91 -9q0 13 6 46q3 18 11 42
q19 49 59 55l12 1q50 -1 114 -53z" />
    <glyph glyph-name="Ohorn" unicode="&#x1a0;" horiz-adv-x="678" 
d="M255 393q-27 -39 -21 -92q11 -74 56 -93q33 -14 97 0q55 17 73 48q20 35 9 113q-8 56 -53 73q-39 14 -98 -2q-40 -13 -63 -47zM609 528q10 -14 20 -30q17 -43 26 -90q21 -107 -15 -232q-20 -68 -62 -106q-28 -25 -40 -25q-113 -42 -117 -43q-78 -17 -198 12
q-124 31 -177 160q-24 54 -32 125q-7 63 6 120q33 132 153 180q173 76 300 31q29 -10 54 -26q5 0 10 1q23 6 25 20q3 17 -24 52l66 64q16 2 37 -42q23 -48 17 -97q-7 -47 -49 -74z" />
    <glyph glyph-name="ohorn" unicode="&#x1a1;" horiz-adv-x="678" 
d="M255 393q-27 -39 -21 -92q11 -74 56 -93q33 -14 97 0q55 17 73 48q20 35 9 113q-8 56 -53 73q-39 14 -98 -2q-40 -13 -63 -47zM609 528q10 -14 20 -30q17 -43 26 -90q21 -107 -15 -232q-20 -68 -62 -106q-28 -25 -40 -25q-113 -42 -117 -43q-78 -17 -198 12
q-124 31 -177 160q-24 54 -32 125q-7 63 6 120q33 132 153 180q173 76 300 31q29 -10 54 -26q5 0 10 1q23 6 25 20q3 17 -24 52l66 64q16 2 37 -42q23 -48 17 -97q-7 -47 -49 -74z" />
    <glyph glyph-name="Uhorn" unicode="&#x1af;" horiz-adv-x="550" 
d="M518 500l-9 -295q0 -69 -49 -130q-64 -81 -179 -70q-146 14 -204 109q-27 44 -31 94l-28 402l207 11l20 -372q10 -55 48 -51q39 4 39 56v369l190 -9v-10q1 1 3 1q23 6 25 20q3 17 -24 52l66 64q16 2 37 -42q23 -48 17 -97q-8 -53 -60 -81q-21 -12 -49 -18q-9 -2 -19 -3z
" />
    <glyph glyph-name="uhorn" unicode="&#x1b0;" horiz-adv-x="550" 
d="M518 500l-9 -295q0 -69 -49 -130q-64 -81 -179 -70q-146 14 -204 109q-27 44 -31 94l-28 402l207 11l20 -372q10 -55 48 -51q39 4 39 56v369l190 -9v-10q1 1 3 1q23 6 25 20q3 17 -24 52l66 64q16 2 37 -42q23 -48 17 -97q-8 -53 -60 -81q-21 -12 -49 -18q-9 -2 -19 -3z
" />
    <glyph glyph-name="circumflex" unicode="&#x2c6;" horiz-adv-x="0" 
d="M123 544l-89 -73l-95 49l141 122l82 1l148 -116l-102 -60z" />
    <glyph glyph-name="breve" unicode="&#x2d8;" horiz-adv-x="0" 
d="M24 635q3 -27 26 -44q21 -15 49 -15q29 0 51 18q24 20 29 56l45 -13q6 -71 -35 -113q-37 -38 -93 -40t-92 32q-40 38 -32 102z" />
    <glyph glyph-name="dotaccent" unicode="&#x2d9;" horiz-adv-x="0" 
 />
    <glyph glyph-name="tilde" unicode="&#x2dc;" horiz-adv-x="0" 
d="M151 606q14 2 18 30l2 11l88 2l2 -8l-21 -86q-29 -42 -66 -48q-63 -7 -126 46q-6 -1 -8 -23v-6l-91 -9q0 13 6 46q3 18 11 42q19 49 59 55l12 1q50 -1 114 -53z" />
    <glyph glyph-name="gravecomb" unicode="&#x300;" horiz-adv-x="0" 
d="M124 565l-44 -78l-201 103l41 109z" />
    <glyph glyph-name="acutecomb" unicode="&#x301;" horiz-adv-x="0" 
d="M46 481l-48 75l186 129l76 -87z" />
    <glyph glyph-name="tildecomb" unicode="&#x303;" horiz-adv-x="0" 
d="M151 606q14 2 18 30l2 11l88 2l2 -8l-21 -86q-29 -42 -66 -48q-63 -7 -126 46q-6 -1 -8 -23v-6l-91 -9q0 13 6 46q3 18 11 42q19 49 59 55l12 1q50 -1 114 -53z" />
    <glyph glyph-name="hookabovecomb" unicode="&#x309;" horiz-adv-x="10" 
d="M31 559q26 7 34 31q3 27 -12 35q-10 6 -33 1q-9 -1 -36 -11l-3 69l17 6q16 6 35 9q57 7 95 -24q20 -15 28 -44q3 -13 3 -26q1 -29 -18 -55q-20 -21 -35 -29t-55 -19z" />
    <glyph glyph-name="uni031B" unicode="&#x31b;" horiz-adv-x="10" 
d="M903 693q16 2 37 -42q23 -48 17 -97q-8 -53 -60 -81q-21 -12 -49 -18q-26 -5 -50 -2q-56 8 -86 64q74 56 95 44q13 -7 29 -4q23 6 25 20q3 17 -24 52z" />
    <glyph glyph-name="dotbelowcomb" unicode="&#x323;" horiz-adv-x="0" 
d="M42 -78q18 25 44 25q30 0 49 -13q22 -14 22 -41q0 -29 -22 -54q-22 -26 -49 -26q-61 0 -61 56q0 30 17 53z" />
    <glyph glyph-name="uni1EA0" unicode="&#x1ea0;" 
d="M11 13l154 603l272 4l146 -608l-191 -18l-24 120h-140l-23 -120zM333 272l-39 187l-33 -190zM248 -78q18 25 44 25q30 0 49 -13q22 -14 22 -41q0 -29 -22 -54q-22 -26 -49 -26q-61 0 -61 56q0 30 17 53z" />
    <glyph glyph-name="uni1EA1" unicode="&#x1ea1;" 
d="M11 13l154 603l272 4l146 -608l-191 -18l-24 120h-140l-23 -120zM333 272l-39 187l-33 -190zM248 -78q18 25 44 25q30 0 49 -13q22 -14 22 -41q0 -29 -22 -54q-22 -26 -49 -26q-61 0 -61 56q0 30 17 53z" />
    <glyph glyph-name="uni1EA2" unicode="&#x1ea2;" 
d="M11 13l154 603l272 4l146 -608l-191 -18l-24 120h-140l-23 -120zM333 272l-39 187l-33 -190zM258 759q26 7 34 31q3 27 -12 35q-10 6 -33 1q-9 -1 -36 -11l-3 69l17 6q16 6 35 9q57 7 95 -24q20 -15 28 -44q3 -13 3 -26q1 -29 -18 -55q-20 -21 -35 -29t-55 -19z" />
    <glyph glyph-name="uni1EA3" unicode="&#x1ea3;" 
d="M11 13l154 603l272 4l146 -608l-191 -18l-24 120h-140l-23 -120zM333 272l-39 187l-33 -190zM258 759q26 7 34 31q3 27 -11 35q-11 6 -33 1q-10 -1 -36 -11l-4 69l17 6q16 6 35 9q58 7 96 -24q19 -15 27 -44q3 -13 3 -26q1 -29 -18 -55q-19 -21 -34.5 -29t-54.5 -19z" />
    <glyph glyph-name="uni1EA4" unicode="&#x1ea4;" 
d="M11 13l154 603l272 4l146 -608l-191 -18l-24 120h-140l-23 -120zM333 272l-39 187l-33 -190zM303 737l-89 -73l-95 49l141 122l82 1l148 -116l-102 -60zM254 877l-48 75l186 129l76 -87z" />
    <glyph glyph-name="uni1EA5" unicode="&#x1ea5;" 
d="M11 13l154 603l272 4l146 -608l-191 -18l-24 120h-140l-23 -120zM333 272l-39 187l-33 -190zM303 737l-89 -73l-95 49l141 122l82 1l148 -116l-102 -60zM254 877l-48 75l186 129l76 -87z" />
    <glyph glyph-name="uni1EA6" unicode="&#x1ea6;" 
d="M11 13l154 603l272 4l146 -608l-191 -18l-24 120h-140l-23 -120zM333 272l-39 187l-33 -190zM303 737l-89 -73l-95 49l141 122l82 1l148 -116l-102 -60zM420 948l-44 -78l-201 103l41 109z" />
    <glyph glyph-name="uni1EA7" unicode="&#x1ea7;" 
d="M11 13l154 603l272 4l146 -608l-191 -18l-24 120h-140l-23 -120zM333 272l-39 187l-33 -190zM303 737l-89 -73l-95 49l141 122l82 1l148 -116l-102 -60zM420 948l-44 -78l-201 103l41 109z" />
    <glyph glyph-name="uni1EA8" unicode="&#x1ea8;" 
d="M11 13l154 603l272 4l146 -608l-191 -18l-24 120h-140l-23 -120zM333 272l-39 187l-33 -190zM303 737l-89 -73l-95 49l141 122l82 1l148 -116l-102 -60zM391 896q26 7 34 31q3 27 -12 35q-10 6 -33 1q-9 -1 -36 -11l-3 69l17 6q16 6 35 9q57 7 95 -24q20 -15 28 -44
q3 -13 3 -26q1 -29 -18 -55q-20 -21 -35 -29t-55 -19z" />
    <glyph glyph-name="uni1EA9" unicode="&#x1ea9;" 
d="M11 13l154 603l272 4l146 -608l-191 -18l-24 120h-140l-23 -120zM333 272l-39 187l-33 -190zM303 737l-89 -73l-95 49l141 122l82 1l148 -116l-102 -60zM391 896q26 7 34 31q3 27 -12 35q-10 6 -33 1q-9 -1 -36 -11l-3 69l17 6q16 6 35 9q57 7 95 -24q20 -15 28 -44
q3 -13 3 -26q1 -29 -18 -55q-20 -21 -35 -29t-55 -19z" />
    <glyph glyph-name="uni1EAA" unicode="&#x1eaa;" 
d="M11 13l154 603l272 4l146 -608l-191 -18l-24 120h-140l-23 -120zM333 272l-39 187l-33 -190zM303 737l-89 -73l-95 49l141 122l82 1l148 -116l-102 -60zM346 973q14 2 18 30l2 11l88 2l2 -8l-21 -86q-29 -42 -66 -48q-63 -7 -126 46q-6 -1 -8 -23v-6l-91 -9q0 13 6 46
q3 18 11 42q19 49 59 55l12 1q50 -1 114 -53z" />
    <glyph glyph-name="uni1EAB" unicode="&#x1eab;" 
d="M11 13l154 603l272 4l146 -608l-191 -18l-24 120h-140l-23 -120zM333 272l-39 187l-33 -190zM303 737l-89 -73l-95 49l141 122l82 1l148 -116l-102 -60zM346 973q14 2 18 30l2 11l88 2l2 -8l-21 -86q-29 -42 -66 -48q-63 -7 -126 46q-6 -1 -8 -23v-6l-91 -9q0 13 6 46
q3 18 11 42q19 49 59 55l12 1q50 -1 114 -53z" />
    <glyph glyph-name="uni1EAC" unicode="&#x1eac;" 
d="M11 13l154 603l272 4l146 -608l-191 -18l-24 120h-140l-23 -120zM333 272l-39 187l-33 -190zM303 737l-89 -73l-95 49l141 122l82 1l148 -116l-102 -60zM242 -78q18 25 44 25q30 0 49 -13q22 -14 22 -41q0 -29 -22 -54q-22 -26 -49 -26q-61 0 -61 56q0 30 17 53z" />
    <glyph glyph-name="uni1EAD" unicode="&#x1ead;" 
d="M11 13l154 603l272 4l146 -608l-191 -18l-24 120h-140l-23 -120zM333 272l-39 187l-33 -190zM303 737l-89 -73l-95 49l141 122l82 1l148 -116l-102 -60zM242 -78q18 25 44 25q30 0 49 -13q22 -14 22 -41q0 -29 -22 -54q-22 -26 -49 -26q-61 0 -61 56q0 30 17 53z" />
    <glyph glyph-name="uni1EAE" unicode="&#x1eae;" 
d="M11 13l154 603l272 4l146 -608l-191 -18l-24 120h-140l-23 -120zM333 272l-39 187l-33 -190zM221 835q3 -27 25 -43t50 -16q29 0 50 18q24 20 30 57l45 -14q6 -70 -36 -113q-36 -37 -92 -39t-92 31q-40 38 -32 102zM311 877l-48 75l186 129l76 -87z" />
    <glyph glyph-name="uni1EAF" unicode="&#x1eaf;" 
d="M11 13l154 603l272 4l146 -608l-191 -18l-24 120h-140l-23 -120zM333 272l-39 187l-33 -190zM221 835q3 -27 25 -43t50 -16q29 0 50 18q24 20 30 57l45 -14q6 -70 -36 -113q-36 -37 -92 -39t-92 31q-40 38 -32 102zM311 877l-48 75l186 129l76 -87z" />
    <glyph glyph-name="uni1EB0" unicode="&#x1eb0;" 
d="M11 13l154 603l272 4l146 -608l-191 -18l-24 120h-140l-23 -120zM333 272l-39 187l-33 -190zM221 835q3 -27 25 -43t50 -16q29 0 50 18q24 20 30 57l45 -14q6 -70 -36 -113q-36 -37 -92 -39t-92 31q-40 38 -32 102zM359 948l-44 -78l-201 103l41 109z" />
    <glyph glyph-name="uni1EB1" unicode="&#x1eb1;" 
d="M11 13l154 603l272 4l146 -608l-191 -18l-24 120h-140l-23 -120zM333 272l-39 187l-33 -190zM221 835q3 -27 25 -43t50 -16q29 0 50 18q24 20 30 57l45 -14q6 -70 -36 -113q-36 -37 -92 -39t-92 31q-40 38 -32 102zM359 948l-44 -78l-201 103l41 109z" />
    <glyph glyph-name="uni1EB2" unicode="&#x1eb2;" 
d="M11 13l154 603l272 4l146 -608l-191 -18l-24 120h-140l-23 -120zM333 272l-39 187l-33 -190zM221 835q3 -27 25 -43t50 -16q29 0 50 18q24 20 30 57l45 -14q6 -70 -36 -113q-36 -37 -92 -39t-92 31q-40 38 -32 102zM260 896q26 7 34 31q3 27 -12 35q-10 6 -33 1
q-9 -1 -36 -11l-3 69l17 6q16 6 35 9q57 7 95 -24q20 -15 28 -44q3 -13 3 -26q1 -29 -18 -55q-20 -21 -35 -29t-55 -19z" />
    <glyph glyph-name="uni1EB3" unicode="&#x1eb3;" 
d="M11 13l154 603l272 4l146 -608l-191 -18l-24 120h-140l-23 -120zM333 272l-39 187l-33 -190zM221 835q3 -27 25 -43t50 -16q29 0 50 18q24 20 30 57l45 -14q6 -70 -36 -113q-36 -37 -92 -39t-92 31q-40 38 -32 102zM260 896q26 7 34 31q3 27 -12 35q-10 6 -33 1
q-9 -1 -36 -11l-3 69l17 6q16 6 35 9q57 7 95 -24q20 -15 28 -44q3 -13 3 -26q1 -29 -18 -55q-20 -21 -35 -29t-55 -19z" />
    <glyph glyph-name="uni1EB4" unicode="&#x1eb4;" 
d="M11 13l154 603l272 4l146 -608l-191 -18l-24 120h-140l-23 -120zM333 272l-39 187l-33 -190zM221 835q3 -27 25 -43t50 -16q29 0 50 18q24 20 30 57l45 -14q6 -70 -36 -113q-36 -37 -92 -39t-92 31q-40 38 -32 102zM346 973q14 2 18 30l2 11l88 2l2 -8l-21 -86
q-29 -42 -66 -48q-63 -7 -126 46q-6 -1 -8 -23v-6l-91 -9q0 13 6 46q3 18 11 42q19 49 59 55l12 1q50 -1 114 -53z" />
    <glyph glyph-name="uni1EB5" unicode="&#x1eb5;" 
d="M11 13l154 603l272 4l146 -608l-191 -18l-24 120h-140l-23 -120zM333 272l-39 187l-33 -190zM221 835q3 -27 25 -43t50 -16q29 0 50 18q24 20 30 57l45 -14q6 -70 -36 -113q-36 -37 -92 -39t-92 31q-40 38 -32 102zM346 973q14 2 18 30l2 11l88 2l2 -8l-21 -86
q-29 -42 -66 -48q-63 -7 -126 46q-6 -1 -8 -23v-6l-91 -9q0 13 6 46q3 18 11 42q19 49 59 55l12 1q50 -1 114 -53z" />
    <glyph glyph-name="uni1EB6" unicode="&#x1eb6;" 
d="M11 13l154 603l272 4l146 -608l-191 -18l-24 120h-140l-23 -120zM333 272l-39 187l-33 -190zM221 835q3 -27 25 -43t50 -16q29 0 50 18q24 20 30 57l45 -14q6 -70 -36 -113q-36 -37 -92 -39t-92 31q-40 38 -32 102zM242 -78q18 25 44 25q30 0 49 -13q22 -14 22 -41
q0 -29 -22 -54q-22 -26 -49 -26q-61 0 -61 56q0 30 17 53z" />
    <glyph glyph-name="uni1EB7" unicode="&#x1eb7;" 
d="M11 13l154 603l272 4l146 -608l-191 -18l-24 120h-140l-23 -120zM333 272l-39 187l-33 -190zM221 835q3 -27 25 -43t50 -16q29 0 50 18q24 20 30 57l45 -14q6 -70 -36 -113q-36 -37 -92 -39t-92 31q-40 38 -32 102zM242 -78q18 25 44 25q30 0 49 -13q22 -14 22 -41
q0 -29 -22 -54q-22 -26 -49 -26q-61 0 -61 56q0 30 17 53z" />
    <glyph glyph-name="uni1EB8" unicode="&#x1eb8;" horiz-adv-x="493" 
d="M465 8l-452 -4l23 609l420 3l-5 -88q-3 -67 -3 -87l-208 -1v-55l155 2l-14 -150l-148 -5l-3 -48l61 1q36 0 54 1q119 0 117 2zM190 -78q18 25 44 25q30 0 49 -13q22 -14 22 -41q0 -29 -22 -54q-22 -26 -49 -26q-61 0 -61 56q0 30 17 53z" />
    <glyph glyph-name="uni1EB9" unicode="&#x1eb9;" horiz-adv-x="493" 
d="M465 8l-452 -4l23 609l420 3l-5 -88q-3 -67 -3 -87l-208 -1v-55l155 2l-14 -150l-148 -5l-3 -48l61 1q36 0 54 1q119 0 117 2zM190 -78q18 25 44 25q30 0 49 -13q22 -14 22 -41q0 -29 -22 -54q-22 -26 -49 -26q-61 0 -61 56q0 30 17 53z" />
    <glyph glyph-name="uni1EBA" unicode="&#x1eba;" horiz-adv-x="493" 
d="M465 8l-452 -4l23 609l420 3l-5 -88q-3 -67 -3 -87l-208 -1v-55l155 2l-14 -150l-148 -5l-3 -48l61 1q36 0 54 1q119 0 117 2zM200 759q26 7 34 31q3 27 -12 35q-10 6 -33 1q-9 -1 -36 -11l-3 69l17 6q16 6 35 9q57 7 95 -24q20 -15 28 -44q3 -13 3 -26q1 -29 -18 -55
q-20 -21 -35 -29t-55 -19z" />
    <glyph glyph-name="uni1EBB" unicode="&#x1ebb;" horiz-adv-x="493" 
d="M465 8l-452 -4l23 609l420 3l-5 -88q-3 -67 -3 -87l-208 -1v-55l155 2l-14 -150l-148 -5l-3 -48l61 1q36 0 54 1q119 0 117 2zM200 759q26 7 34 31q3 27 -11 35q-11 6 -33 1q-10 -1 -36 -11l-4 69l17 6q16 6 35 9q58 7 96 -24q19 -15 27 -44q3 -13 3 -26q1 -29 -18 -55
q-19 -21 -34.5 -29t-54.5 -19z" />
    <glyph glyph-name="uni1EBC" unicode="&#x1ebc;" horiz-adv-x="493" 
d="M465 8l-452 -4l23 609l420 3l-5 -88q-3 -67 -3 -87l-208 -1v-55l155 2l-14 -150l-148 -5l-3 -48l61 1q36 0 54 1q119 0 117 2zM285 806q14 2 18 30l2 11l88 2l2 -8l-21 -86q-29 -42 -66 -48q-63 -7 -126 46q-6 -1 -8 -23v-6l-91 -9q0 13 6 46q3 18 11 42q19 49 59 55
l12 1q50 -1 114 -53z" />
    <glyph glyph-name="uni1EBD" unicode="&#x1ebd;" horiz-adv-x="493" 
d="M465 8l-452 -4l23 609l420 3l-5 -88q-3 -67 -3 -87l-208 -1v-55l155 2l-14 -150l-148 -5l-3 -48l61 1q36 0 54 1q119 0 117 2zM285 806q14 2 18 30l2 11l89 2l1 -8l-21 -86q-29 -42 -66 -48q-62 -7 -125 46q-7 -1 -9 -23v-6l-91 -9q0 13 6 46q3 18 11 42q19 49 59 55
l12 1q50 -1 114 -53z" />
    <glyph glyph-name="uni1EBE" unicode="&#x1ebe;" horiz-adv-x="493" 
d="M465 8l-452 -4l23 609l420 3l-5 -88q-3 -67 -3 -87l-208 -1v-55l155 2l-14 -150l-148 -5l-3 -48l61 1q36 0 54 1q119 0 117 2zM238 744l-89 -73l-95 49l141 122l81 1l149 -116l-102 -60zM154 877l-48 75l186 129l76 -87z" />
    <glyph glyph-name="uni1EBF" unicode="&#x1ebf;" horiz-adv-x="493" 
d="M465 8l-452 -4l23 609l420 3l-5 -88q-3 -67 -3 -87l-208 -1v-55l155 2l-14 -150l-148 -5l-3 -48l61 1q36 0 54 1q119 0 117 2zM238 744l-89 -73l-95 49l141 122l81 1l149 -116l-102 -60zM154 877l-48 75l186 129l76 -87z" />
    <glyph glyph-name="uni1EC0" unicode="&#x1ec0;" horiz-adv-x="493" 
d="M465 8l-452 -4l23 609l420 3l-5 -88q-3 -67 -3 -87l-208 -1v-55l155 2l-14 -150l-148 -5l-3 -48l61 1q36 0 54 1q119 0 117 2zM238 744l-89 -73l-95 49l141 122l81 1l149 -116l-102 -60zM359 948l-44 -78l-201 103l41 109z" />
    <glyph glyph-name="uni1EC1" unicode="&#x1ec1;" horiz-adv-x="493" 
d="M465 8l-452 -4l23 609l420 3l-5 -88q-3 -67 -3 -87l-208 -1v-55l155 2l-14 -150l-148 -5l-3 -48l61 1q36 0 54 1q119 0 117 2zM238 744l-89 -73l-95 49l141 122l81 1l149 -116l-102 -60zM359 948l-44 -78l-201 103l41 109z" />
    <glyph glyph-name="uni1EC2" unicode="&#x1ec2;" horiz-adv-x="493" 
d="M465 8l-452 -4l23 609l420 3l-5 -88q-3 -67 -3 -87l-208 -1v-55l155 2l-14 -150l-148 -5l-3 -48l61 1q36 0 54 1q119 0 117 2zM238 744l-89 -73l-95 49l141 122l81 1l149 -116l-102 -60zM344 896q26 7 34 31q3 27 -12 35q-10 6 -33 1q-9 -1 -36 -11l-3 69l17 6q16 6 35 9
q57 7 95 -24q20 -15 28 -44q3 -13 3 -26q1 -29 -18 -55q-20 -21 -35 -29t-55 -19z" />
    <glyph glyph-name="uni1EC3" unicode="&#x1ec3;" horiz-adv-x="493" 
d="M465 8l-452 -4l23 609l420 3l-5 -88q-3 -67 -3 -87l-208 -1v-55l155 2l-14 -150l-148 -5l-3 -48l61 1q36 0 54 1q119 0 117 2zM238 744l-89 -73l-95 49l141 122l81 1l149 -116l-102 -60zM344 896q26 7 34 31q3 27 -12 35q-10 6 -33 1q-9 -1 -36 -11l-3 69l17 6q16 6 35 9
q57 7 95 -24q20 -15 28 -44q3 -13 3 -26q1 -29 -18 -55q-20 -21 -35 -29t-55 -19z" />
    <glyph glyph-name="uni1EC4" unicode="&#x1ec4;" horiz-adv-x="493" 
d="M465 8l-452 -4l23 609l420 3l-5 -88q-3 -67 -3 -87l-208 -1v-55l155 2l-14 -150l-148 -5l-3 -48l61 1q36 0 54 1q119 0 117 2zM238 744l-89 -73l-95 49l141 122l81 1l149 -116l-102 -60zM297 973q14 2 18 30l2 11l88 2l2 -8l-21 -86q-29 -42 -66 -48q-63 -7 -126 46
q-6 -1 -8 -23v-6l-91 -9q0 13 6 46q3 18 11 42q19 49 59 55l12 1q50 -1 114 -53z" />
    <glyph glyph-name="uni1EC5" unicode="&#x1ec5;" horiz-adv-x="493" 
d="M465 8l-452 -4l23 609l420 3l-5 -88q-3 -67 -3 -87l-208 -1v-55l155 2l-14 -150l-148 -5l-3 -48l61 1q36 0 54 1q119 0 117 2zM238 744l-89 -73l-95 49l141 122l81 1l149 -116l-102 -60zM297 973q14 2 18 30l2 11l88 2l2 -8l-21 -86q-29 -42 -66 -48q-63 -7 -126 46
q-6 -1 -8 -23v-6l-91 -9q0 13 6 46q3 18 11 42q19 49 59 55l12 1q50 -1 114 -53z" />
    <glyph glyph-name="uni1EC6" unicode="&#x1ec6;" horiz-adv-x="493" 
d="M465 8l-452 -4l23 609l420 3l-5 -88q-3 -67 -3 -87l-208 -1v-55l155 2l-14 -150l-148 -5l-3 -48l61 1q36 0 54 1q119 0 117 2zM238 744l-89 -73l-95 49l141 122l81 1l149 -116l-102 -60zM161 -78q18 25 44 25q30 0 49 -13q22 -14 22 -41q0 -29 -22 -54q-22 -26 -49 -26
q-61 0 -61 56q0 30 17 53z" />
    <glyph glyph-name="uni1EC7" unicode="&#x1ec7;" horiz-adv-x="493" 
d="M465 8l-452 -4l23 609l420 3l-5 -88q-3 -67 -3 -87l-208 -1v-55l155 2l-14 -150l-148 -5l-3 -48l61 1q36 0 54 1q119 0 117 2zM238 744l-89 -73l-95 49l141 122l81 1l149 -116l-102 -60zM161 -78q18 25 44 25q30 0 49 -13q22 -14 22 -41q0 -29 -22 -54q-22 -26 -49 -26
q-61 0 -61 56q0 30 17 53z" />
    <glyph glyph-name="uni1EC8" unicode="&#x1ec8;" horiz-adv-x="287" 
d="M246 3h-221l36 607l182 11zM97 759q26 7 34 31q3 27 -12 35q-10 6 -33 1q-9 -1 -36 -11l-3 69l17 6q16 6 35 9q57 7 95 -24q20 -15 28 -44q3 -13 3 -26q1 -29 -18 -55q-20 -21 -35 -29t-55 -19z" />
    <glyph glyph-name="uni1EC9" unicode="&#x1ec9;" horiz-adv-x="287" 
d="M246 3h-221l36 607l182 11zM97 759q25 7 33 31q4 27 -11 35q-10 6 -33 1q-10 -1 -36 -11l-4 69l18 6q15 6 35 9q57 7 95 -24q20 -15 27 -44q4 -13 4 -26q1 -29 -18 -55q-20 -21 -35.5 -29t-54.5 -19z" />
    <glyph glyph-name="uni1ECA" unicode="&#x1eca;" horiz-adv-x="287" 
d="M246 3h-221l36 607l182 11zM87 -78q18 25 44 25q30 0 49 -13q22 -14 22 -41q0 -29 -22 -54q-22 -26 -49 -26q-61 0 -61 56q0 30 17 53z" />
    <glyph glyph-name="uni1ECB" unicode="&#x1ecb;" horiz-adv-x="287" 
d="M246 3h-221l36 607l182 11zM87 -78q18 25 44 25q30 0 49 -13q22 -14 22 -41q0 -29 -22 -54q-22 -26 -49 -26q-61 0 -61 56q0 30 17 53z" />
    <glyph glyph-name="uni1ECC" unicode="&#x1ecc;" horiz-adv-x="678" 
d="M415 2q-78 -17 -198 12q-124 31 -177 160q-24 54 -32 125q-7 63 6 120q33 132 153 180q173 76 300 31q96 -34 156 -132q17 -43 26 -90q21 -107 -15 -232q-20 -68 -62 -106q-28 -25 -40 -25q-113 -42 -117 -43zM249 393q-27 -39 -21 -92q11 -74 56 -93q33 -14 97 0
q55 17 73 48q20 35 9 113q-8 56 -53 73q-39 14 -98 -2q-40 -13 -63 -47zM292 -78q18 25 44 25q30 0 49 -13q22 -14 22 -41q0 -29 -22 -54q-22 -26 -49 -26q-61 0 -61 56q0 30 17 53z" />
    <glyph glyph-name="uni1ECD" unicode="&#x1ecd;" horiz-adv-x="678" 
d="M420 2q-78 -17 -198 12q-124 31 -177 160q-24 54 -32 125q-7 63 6 120q33 132 153 180q173 76 300 31q96 -34 156 -132q17 -43 26 -90q21 -107 -15 -232q-20 -68 -62 -106q-28 -25 -40 -25q-113 -42 -117 -43zM254 393q-27 -39 -21 -92q11 -74 56 -93q33 -14 97 0
q55 17 73 48q20 35 9 113q-8 56 -53 73q-39 14 -98 -2q-40 -13 -63 -47zM287 -78q18 25 44 25q30 0 49 -13q22 -14 22 -41q0 -29 -22 -54q-22 -26 -49 -26q-61 0 -61 56q0 30 17 53z" />
    <glyph glyph-name="uni1ECE" unicode="&#x1ece;" horiz-adv-x="678" 
d="M415 2q-78 -17 -198 12q-124 31 -177 160q-24 54 -32 125q-7 63 6 120q33 132 153 180q173 76 300 31q96 -34 156 -132q17 -43 26 -90q21 -107 -15 -232q-20 -68 -62 -106q-28 -25 -40 -25q-113 -42 -117 -43zM249 393q-27 -39 -21 -92q11 -74 56 -93q33 -14 97 0
q55 17 73 48q20 35 9 113q-8 56 -53 73q-39 14 -98 -2q-40 -13 -63 -47zM302 759q26 7 34 31q3 27 -12 35q-10 6 -33 1q-9 -1 -36 -11l-3 69l17 6q16 6 35 9q57 7 95 -24q20 -15 28 -44q3 -13 3 -26q1 -29 -18 -55q-20 -21 -35 -29t-55 -19z" />
    <glyph glyph-name="uni1ECF" unicode="&#x1ecf;" horiz-adv-x="678" 
d="M420 2q-78 -17 -198 12q-124 31 -177 160q-24 54 -32 125q-7 63 6 120q33 132 153 180q173 76 300 31q96 -34 156 -132q17 -43 26 -90q21 -107 -15 -232q-20 -68 -62 -106q-28 -25 -40 -25q-113 -42 -117 -43zM254 393q-27 -39 -21 -92q11 -74 56 -93q33 -14 97 0
q55 17 73 48q20 35 9 113q-8 56 -53 73q-39 14 -98 -2q-40 -13 -63 -47zM297 759q26 7 34 31q3 27 -11 35q-11 6 -34 1q-9 -1 -35 -11l-4 69l17 6q16 6 35 9q58 7 96 -24q19 -15 27 -44q3 -13 3 -26q1 -29 -18 -55q-19 -21 -34.5 -29t-54.5 -19z" />
    <glyph glyph-name="uni1ED0" unicode="&#x1ed0;" horiz-adv-x="678" 
d="M420 2q-78 -17 -198 12q-124 31 -177 160q-24 54 -32 125q-7 63 6 120q33 132 153 180q173 76 300 31q96 -34 156 -132q17 -43 26 -90q21 -107 -15 -232q-20 -68 -62 -106q-28 -25 -40 -25q-113 -42 -117 -43zM254 393q-27 -39 -21 -92q11 -74 56 -93q33 -14 97 0
q55 17 73 48q20 35 9 113q-8 56 -53 73q-39 14 -98 -2q-40 -13 -63 -47zM335 744l-89 -73l-96 49l142 122l81 1l148 -116l-101 -60zM306 877l-48 75l186 129l76 -87z" />
    <glyph glyph-name="uni1ED1" unicode="&#x1ed1;" horiz-adv-x="678" 
d="M420 2q-78 -17 -198 12q-124 31 -177 160q-24 54 -32 125q-7 63 6 120q33 132 153 180q173 76 300 31q96 -34 156 -132q17 -43 26 -90q21 -107 -15 -232q-20 -68 -62 -106q-28 -25 -40 -25q-113 -42 -117 -43zM254 393q-27 -39 -21 -92q11 -74 56 -93q33 -14 97 0
q55 17 73 48q20 35 9 113q-8 56 -53 73q-39 14 -98 -2q-40 -13 -63 -47zM335 744l-89 -73l-96 49l142 122l81 1l148 -116l-101 -60zM306 877l-48 75l186 129l76 -87z" />
    <glyph glyph-name="uni1ED2" unicode="&#x1ed2;" horiz-adv-x="678" 
d="M420 2q-78 -17 -198 12q-124 31 -177 160q-24 54 -32 125q-7 63 6 120q33 132 153 180q173 76 300 31q96 -34 156 -132q17 -43 26 -90q21 -107 -15 -232q-20 -68 -62 -106q-28 -25 -40 -25q-113 -42 -117 -43zM254 393q-27 -39 -21 -92q11 -74 56 -93q33 -14 97 0
q55 17 73 48q20 35 9 113q-8 56 -53 73q-39 14 -98 -2q-40 -13 -63 -47zM335 744l-89 -73l-96 49l142 122l81 1l148 -116l-101 -60zM460 948l-44 -78l-201 103l41 109z" />
    <glyph glyph-name="uni1ED3" unicode="&#x1ed3;" horiz-adv-x="678" 
d="M420 2q-78 -17 -198 12q-124 31 -177 160q-24 54 -32 125q-7 63 6 120q33 132 153 180q173 76 300 31q96 -34 156 -132q17 -43 26 -90q21 -107 -15 -232q-20 -68 -62 -106q-28 -25 -40 -25q-113 -42 -117 -43zM254 393q-27 -39 -21 -92q11 -74 56 -93q33 -14 97 0
q55 17 73 48q20 35 9 113q-8 56 -53 73q-39 14 -98 -2q-40 -13 -63 -47zM335 744l-89 -73l-96 49l142 122l81 1l148 -116l-101 -60zM460 948l-44 -78l-201 103l41 109z" />
    <glyph glyph-name="uni1ED4" unicode="&#x1ed4;" horiz-adv-x="678" 
d="M420 2q-78 -17 -198 12q-124 31 -177 160q-24 54 -32 125q-7 63 6 120q33 132 153 180q173 76 300 31q96 -34 156 -132q17 -43 26 -90q21 -107 -15 -232q-20 -68 -62 -106q-28 -25 -40 -25q-113 -42 -117 -43zM254 393q-27 -39 -21 -92q11 -74 56 -93q33 -14 97 0
q55 17 73 48q20 35 9 113q-8 56 -53 73q-39 14 -98 -2q-40 -13 -63 -47zM335 744l-89 -73l-96 49l142 122l81 1l148 -116l-101 -60zM442 896q26 7 34 31q3 27 -12 35q-10 6 -33 1q-9 -1 -36 -11l-3 69l17 6q16 6 35 9q57 7 95 -24q20 -15 28 -44q3 -13 3 -26q1 -29 -18 -55
q-20 -21 -35 -29t-55 -19z" />
    <glyph glyph-name="uni1ED5" unicode="&#x1ed5;" horiz-adv-x="678" 
d="M420 2q-78 -17 -198 12q-124 31 -177 160q-24 54 -32 125q-7 63 6 120q33 132 153 180q173 76 300 31q96 -34 156 -132q17 -43 26 -90q21 -107 -15 -232q-20 -68 -62 -106q-28 -25 -40 -25q-113 -42 -117 -43zM254 393q-27 -39 -21 -92q11 -74 56 -93q33 -14 97 0
q55 17 73 48q20 35 9 113q-8 56 -53 73q-39 14 -98 -2q-40 -13 -63 -47zM335 744l-89 -73l-96 49l142 122l81 1l148 -116l-101 -60zM442 896q26 7 34 31q3 27 -12 35q-10 6 -33 1q-9 -1 -36 -11l-3 69l17 6q16 6 35 9q57 7 95 -24q20 -15 28 -44q3 -13 3 -26q1 -29 -18 -55
q-20 -21 -35 -29t-55 -19z" />
    <glyph glyph-name="uni1ED6" unicode="&#x1ed6;" horiz-adv-x="678" 
d="M420 2q-78 -17 -198 12q-124 31 -177 160q-24 54 -32 125q-7 63 6 120q33 132 153 180q173 76 300 31q96 -34 156 -132q17 -43 26 -90q21 -107 -15 -232q-20 -68 -62 -106q-28 -25 -40 -25q-113 -42 -117 -43zM254 393q-27 -39 -21 -92q11 -74 56 -93q33 -14 97 0
q55 17 73 48q20 35 9 113q-8 56 -53 73q-39 14 -98 -2q-40 -13 -63 -47zM335 744l-89 -73l-96 49l142 122l81 1l148 -116l-101 -60zM387 973q14 2 18 30l2 11l88 2l2 -8l-21 -86q-29 -42 -66 -48q-63 -7 -126 46q-6 -1 -8 -23v-6l-91 -9q0 13 6 46q3 18 11 42q19 49 59 55
l12 1q50 -1 114 -53z" />
    <glyph glyph-name="uni1ED7" unicode="&#x1ed7;" horiz-adv-x="678" 
d="M420 2q-78 -17 -198 12q-124 31 -177 160q-24 54 -32 125q-7 63 6 120q33 132 153 180q173 76 300 31q96 -34 156 -132q17 -43 26 -90q21 -107 -15 -232q-20 -68 -62 -106q-28 -25 -40 -25q-113 -42 -117 -43zM254 393q-27 -39 -21 -92q11 -74 56 -93q33 -14 97 0
q55 17 73 48q20 35 9 113q-8 56 -53 73q-39 14 -98 -2q-40 -13 -63 -47zM335 744l-89 -73l-96 49l142 122l81 1l148 -116l-101 -60zM387 973q14 2 18 30l2 11l88 2l2 -8l-21 -86q-29 -42 -66 -48q-63 -7 -126 46q-6 -1 -8 -23v-6l-91 -9q0 13 6 46q3 18 11 42q19 49 59 55
l12 1q50 -1 114 -53z" />
    <glyph glyph-name="uni1ED8" unicode="&#x1ed8;" horiz-adv-x="678" 
d="M420 2q-78 -17 -198 12q-124 31 -177 160q-24 54 -32 125q-7 63 6 120q33 132 153 180q173 76 300 31q96 -34 156 -132q17 -43 26 -90q21 -107 -15 -232q-20 -68 -62 -106q-28 -25 -40 -25q-113 -42 -117 -43zM254 393q-27 -39 -21 -92q11 -74 56 -93q33 -14 97 0
q55 17 73 48q20 35 9 113q-8 56 -53 73q-39 14 -98 -2q-40 -13 -63 -47zM335 744l-89 -73l-96 49l142 122l81 1l148 -116l-101 -60zM291 -78q18 25 44 25q30 0 49 -13q22 -14 22 -41q0 -29 -22 -54q-22 -26 -49 -26q-61 0 -61 56q0 30 17 53z" />
    <glyph glyph-name="uni1ED9" unicode="&#x1ed9;" horiz-adv-x="678" 
d="M420 2q-78 -17 -198 12q-124 31 -177 160q-24 54 -32 125q-7 63 6 120q33 132 153 180q173 76 300 31q96 -34 156 -132q17 -43 26 -90q21 -107 -15 -232q-20 -68 -62 -106q-28 -25 -40 -25q-113 -42 -117 -43zM254 393q-27 -39 -21 -92q11 -74 56 -93q33 -14 97 0
q55 17 73 48q20 35 9 113q-8 56 -53 73q-39 14 -98 -2q-40 -13 -63 -47zM335 744l-89 -73l-96 49l142 122l81 1l148 -116l-101 -60zM291 -78q18 25 44 25q30 0 49 -13q22 -14 22 -41q0 -29 -22 -54q-22 -26 -49 -26q-61 0 -61 56q0 30 17 53z" />
    <glyph glyph-name="uni1EDA" unicode="&#x1eda;" horiz-adv-x="678" 
d="M251 393q-27 -39 -21 -92q11 -74 56 -93q33 -14 97 0q55 17 73 48q20 35 9 113q-8 56 -53 73q-39 14 -98 -2q-40 -13 -63 -47zM605 528q10 -14 20 -30q17 -43 26 -90q21 -107 -15 -232q-20 -68 -62 -106q-28 -25 -40 -25q-113 -42 -117 -43q-78 -17 -198 12
q-124 31 -177 160q-24 54 -32 125q-7 63 6 120q33 132 153 180q173 76 300 31q29 -10 54 -26q5 0 10 1q23 6 25 20q3 17 -24 52l66 64q16 2 37 -42q23 -48 17 -97q-7 -47 -49 -74zM302 681l-48 75l186 129l76 -87z" />
    <glyph glyph-name="uni1EDB" unicode="&#x1edb;" horiz-adv-x="678" 
d="M255 393q-27 -39 -21 -92q11 -74 56 -93q33 -14 97 0q55 17 73 48q20 35 9 113q-8 56 -53 73q-39 14 -98 -2q-40 -13 -63 -47zM609 528q10 -14 20 -30q17 -43 26 -90q21 -107 -15 -232q-20 -68 -62 -106q-28 -25 -40 -25q-113 -42 -117 -43q-78 -17 -198 12
q-124 31 -177 160q-24 54 -32 125q-7 63 6 120q33 132 153 180q173 76 300 31q29 -10 54 -26q5 0 10 1q23 6 25 20q3 17 -24 52l66 64q16 2 37 -42q23 -48 17 -97q-7 -47 -49 -74zM298 681l-48 75l185 129l77 -87z" />
    <glyph glyph-name="uni1EDC" unicode="&#x1edc;" horiz-adv-x="678" 
d="M251 393q-27 -39 -21 -92q11 -74 56 -93q33 -14 97 0q55 17 73 48q20 35 9 113q-8 56 -53 73q-39 14 -98 -2q-40 -13 -63 -47zM605 528q10 -14 20 -30q17 -43 26 -90q21 -107 -15 -232q-20 -68 -62 -106q-28 -25 -40 -25q-113 -42 -117 -43q-78 -17 -198 12
q-124 31 -177 160q-24 54 -32 125q-7 63 6 120q33 132 153 180q173 76 300 31q29 -10 54 -26q5 0 10 1q23 6 25 20q3 17 -24 52l66 64q16 2 37 -42q23 -48 17 -97q-7 -47 -49 -74zM423 765l-44 -78l-201 103l41 109z" />
    <glyph glyph-name="uni1EDD" unicode="&#x1edd;" horiz-adv-x="678" 
d="M255 393q-27 -39 -21 -92q11 -74 56 -93q33 -14 97 0q55 17 73 48q20 35 9 113q-8 56 -53 73q-39 14 -98 -2q-40 -13 -63 -47zM609 528q10 -14 20 -30q17 -43 26 -90q21 -107 -15 -232q-20 -68 -62 -106q-28 -25 -40 -25q-113 -42 -117 -43q-78 -17 -198 12
q-124 31 -177 160q-24 54 -32 125q-7 63 6 120q33 132 153 180q173 76 300 31q29 -10 54 -26q5 0 10 1q23 6 25 20q3 17 -24 52l66 64q16 2 37 -42q23 -48 17 -97q-7 -47 -49 -74zM419 765l-44 -78l-201 103l41 109z" />
    <glyph glyph-name="uni1EDE" unicode="&#x1ede;" horiz-adv-x="678" 
d="M251 393q-27 -39 -21 -92q11 -74 56 -93q33 -14 97 0q55 17 73 48q20 35 9 113q-8 56 -53 73q-39 14 -98 -2q-40 -13 -63 -47zM605 528q10 -14 20 -30q17 -43 26 -90q21 -107 -15 -232q-20 -68 -62 -106q-28 -25 -40 -25q-113 -42 -117 -43q-78 -17 -198 12
q-124 31 -177 160q-24 54 -32 125q-7 63 6 120q33 132 153 180q173 76 300 31q29 -10 54 -26q5 0 10 1q23 6 25 20q3 17 -24 52l66 64q16 2 37 -42q23 -48 17 -97q-7 -47 -49 -74zM302 759q26 7 34 31q3 27 -12 35q-10 6 -33 1q-9 -1 -36 -11l-3 69l17 6q16 6 35 9
q57 7 95 -24q20 -15 28 -44q3 -13 3 -26q1 -29 -18 -55q-20 -21 -35 -29t-55 -19z" />
    <glyph glyph-name="uni1EDF" unicode="&#x1edf;" horiz-adv-x="678" 
d="M255 393q-27 -39 -21 -92q11 -74 56 -93q33 -14 97 0q55 17 73 48q20 35 9 113q-8 56 -53 73q-39 14 -98 -2q-40 -13 -63 -47zM609 528q10 -14 20 -30q17 -43 26 -90q21 -107 -15 -232q-20 -68 -62 -106q-28 -25 -40 -25q-113 -42 -117 -43q-78 -17 -198 12
q-124 31 -177 160q-24 54 -32 125q-7 63 6 120q33 132 153 180q173 76 300 31q29 -10 54 -26q5 0 10 1q23 6 25 20q3 17 -24 52l66 64q16 2 37 -42q23 -48 17 -97q-7 -47 -49 -74zM298 759q26 7 34 31q3 27 -11 35q-11 6 -33 1q-10 -1 -36 -11l-4 69l17 6q16 6 35 9
q58 7 96 -24q20 -15 27 -44q3 -13 3 -26q1 -29 -18 -55q-19 -21 -34.5 -29t-54.5 -19z" />
    <glyph glyph-name="uni1EE0" unicode="&#x1ee0;" horiz-adv-x="678" 
d="M251 393q-27 -39 -21 -92q11 -74 56 -93q33 -14 97 0q55 17 73 48q20 35 9 113q-8 56 -53 73q-39 14 -98 -2q-40 -13 -63 -47zM605 528q10 -14 20 -30q17 -43 26 -90q21 -107 -15 -232q-20 -68 -62 -106q-28 -25 -40 -25q-113 -42 -117 -43q-78 -17 -198 12
q-124 31 -177 160q-24 54 -32 125q-7 63 6 120q33 132 153 180q173 76 300 31q29 -10 54 -26q5 0 10 1q23 6 25 20q3 17 -24 52l66 64q16 2 37 -42q23 -48 17 -97q-7 -47 -49 -74zM387 806q14 2 18 30l2 11l88 2l2 -8l-21 -86q-29 -42 -66 -48q-63 -7 -126 46q-6 -1 -8 -23
v-6l-91 -9q0 13 6 46q3 18 11 42q19 49 59 55l12 1q50 -1 114 -53z" />
    <glyph glyph-name="uni1EE1" unicode="&#x1ee1;" horiz-adv-x="678" 
d="M255 393q-27 -39 -21 -92q11 -74 56 -93q33 -14 97 0q55 17 73 48q20 35 9 113q-8 56 -53 73q-39 14 -98 -2q-40 -13 -63 -47zM609 528q10 -14 20 -30q17 -43 26 -90q21 -107 -15 -232q-20 -68 -62 -106q-28 -25 -40 -25q-113 -42 -117 -43q-78 -17 -198 12
q-124 31 -177 160q-24 54 -32 125q-7 63 6 120q33 132 153 180q173 76 300 31q29 -10 54 -26q5 0 10 1q23 6 25 20q3 17 -24 52l66 64q16 2 37 -42q23 -48 17 -97q-7 -47 -49 -74zM383 806q15 2 18 30l2 11l89 2l1 -8l-21 -86q-29 -42 -66 -48q-62 -7 -125 46q-7 -1 -9 -23
l1 -6l-92 -9q0 13 7 46q2 18 10 42q19 49 59 55l13 1q49 -1 113 -53z" />
    <glyph glyph-name="uni1EE2" unicode="&#x1ee2;" horiz-adv-x="678" 
d="M251 393q-27 -39 -21 -92q11 -74 56 -93q33 -14 97 0q55 17 73 48q20 35 9 113q-8 56 -53 73q-39 14 -98 -2q-40 -13 -63 -47zM605 528q10 -14 20 -30q17 -43 26 -90q21 -107 -15 -232q-20 -68 -62 -106q-28 -25 -40 -25q-113 -42 -117 -43q-78 -17 -198 12
q-124 31 -177 160q-24 54 -32 125q-7 63 6 120q33 132 153 180q173 76 300 31q29 -10 54 -26q5 0 10 1q23 6 25 20q3 17 -24 52l66 64q16 2 37 -42q23 -48 17 -97q-7 -47 -49 -74zM292 -78q18 25 44 25q30 0 49 -13q22 -14 22 -41q0 -29 -22 -54q-22 -26 -49 -26
q-61 0 -61 56q0 30 17 53z" />
    <glyph glyph-name="uni1EE3" unicode="&#x1ee3;" horiz-adv-x="678" 
d="M255 393q-27 -39 -21 -92q11 -74 56 -93q33 -14 97 0q55 17 73 48q20 35 9 113q-8 56 -53 73q-39 14 -98 -2q-40 -13 -63 -47zM609 528q10 -14 20 -30q17 -43 26 -90q21 -107 -15 -232q-20 -68 -62 -106q-28 -25 -40 -25q-113 -42 -117 -43q-78 -17 -198 12
q-124 31 -177 160q-24 54 -32 125q-7 63 6 120q33 132 153 180q173 76 300 31q29 -10 54 -26q5 0 10 1q23 6 25 20q3 17 -24 52l66 64q16 2 37 -42q23 -48 17 -97q-7 -47 -49 -74zM288 -78q18 25 44 25q30 0 50 -13q21 -14 21 -41q0 -29 -21 -54q-23 -26 -50 -26
q-61 0 -61 56q0 30 17 53z" />
    <glyph glyph-name="uni1EE4" unicode="&#x1ee4;" horiz-adv-x="550" 
d="M509 205q0 -69 -49 -130q-64 -81 -179 -70q-146 14 -204 109q-27 44 -31 94l-28 402l207 11l20 -372q10 -55 48 -51q39 4 39 56v369l190 -9zM221 -78q18 25 44 25q30 0 49 -13q22 -14 22 -41q0 -29 -22 -54q-22 -26 -49 -26q-61 0 -61 56q0 30 17 53z" />
    <glyph glyph-name="uni1EE5" unicode="&#x1ee5;" horiz-adv-x="550" 
d="M509 205q0 -69 -49 -130q-64 -81 -179 -70q-146 14 -204 109q-27 44 -31 94l-28 402l207 11l20 -372q10 -55 48 -51q39 4 39 56v369l190 -9zM221 -78q18 25 44 25q30 0 49 -13q22 -14 22 -41q0 -29 -22 -54q-22 -26 -49 -26q-61 0 -61 56q0 30 17 53z" />
    <glyph glyph-name="uni1EE6" unicode="&#x1ee6;" horiz-adv-x="550" 
d="M509 205q0 -69 -49 -130q-64 -81 -179 -70q-146 14 -204 109q-27 44 -31 94l-28 402l207 11l20 -372q10 -55 48 -51q39 4 39 56v369l190 -9zM231 759q26 7 34 31q3 27 -12 35q-10 6 -33 1q-9 -1 -36 -11l-3 69l17 6q16 6 35 9q57 7 95 -24q20 -15 28 -44q3 -13 3 -26
q1 -29 -18 -55q-20 -21 -35 -29t-55 -19z" />
    <glyph glyph-name="uni1EE7" unicode="&#x1ee7;" horiz-adv-x="550" 
d="M509 205q0 -69 -49 -130q-64 -81 -179 -70q-146 14 -204 109q-27 44 -31 94l-28 402l207 11l20 -372q10 -55 48 -51q39 4 39 56v369l190 -9zM231 759q26 7 34 31q3 27 -11 35q-11 6 -33 1q-10 -1 -36 -11l-4 69l17 6q16 6 35 9q58 7 96 -24q19 -15 27 -44q3 -13 3 -26
q1 -29 -18 -55q-19 -21 -34.5 -29t-54.5 -19z" />
    <glyph glyph-name="uni1EE8" unicode="&#x1ee8;" horiz-adv-x="550" 
d="M518 500l-9 -295q0 -69 -49 -130q-64 -81 -179 -70q-146 14 -204 109q-27 44 -31 94l-28 402l207 11l20 -372q10 -55 48 -51q39 4 39 56v369l190 -9v-10q1 1 3 1q23 6 25 20q3 17 -24 52l66 64q16 2 37 -42q23 -48 17 -97q-8 -53 -60 -81q-21 -12 -49 -18q-9 -2 -19 -3z
M293 681l-48 75l186 129l76 -87z" />
    <glyph glyph-name="uni1EE9" unicode="&#x1ee9;" horiz-adv-x="550" 
d="M518 500l-9 -295q0 -69 -49 -130q-64 -81 -179 -70q-146 14 -204 109q-27 44 -31 94l-28 402l207 11l20 -372q10 -55 48 -51q39 4 39 56v369l190 -9v-10q1 1 3 1q23 6 25 20q3 17 -24 52l66 64q16 2 37 -42q23 -48 17 -97q-8 -53 -60 -81q-21 -12 -49 -18q-9 -2 -19 -3z
M293 681l-48 75l186 129l76 -87z" />
    <glyph glyph-name="uni1EEA" unicode="&#x1eea;" horiz-adv-x="550" 
d="M518 500l-9 -295q0 -69 -49 -130q-64 -81 -179 -70q-146 14 -204 109q-27 44 -31 94l-28 402l207 11l20 -372q10 -55 48 -51q39 4 39 56v369l190 -9v-10q1 1 3 1q23 6 25 20q3 17 -24 52l66 64q16 2 37 -42q23 -48 17 -97q-8 -53 -60 -81q-21 -12 -49 -18q-9 -2 -19 -3z
M414 765l-44 -78l-201 103l41 109z" />
    <glyph glyph-name="uni1EEB" unicode="&#x1eeb;" horiz-adv-x="550" 
d="M518 500l-9 -295q0 -69 -49 -130q-64 -81 -179 -70q-146 14 -204 109q-27 44 -31 94l-28 402l207 11l20 -372q10 -55 48 -51q39 4 39 56v369l190 -9v-10q1 1 3 1q23 6 25 20q3 17 -24 52l66 64q16 2 37 -42q23 -48 17 -97q-8 -53 -60 -81q-21 -12 -49 -18q-9 -2 -19 -3z
M414 765l-44 -78l-201 103l41 109z" />
    <glyph glyph-name="uni1EEC" unicode="&#x1eec;" horiz-adv-x="550" 
d="M518 500l-9 -295q0 -69 -49 -130q-64 -81 -179 -70q-146 14 -204 109q-27 44 -31 94l-28 402l207 11l20 -372q10 -55 48 -51q39 4 39 56v369l190 -9v-10q1 1 3 1q23 6 25 20q3 17 -24 52l66 64q16 2 37 -42q23 -48 17 -97q-8 -53 -60 -81q-21 -12 -49 -18q-9 -2 -19 -3z
M294 759q26 7 34 31q3 27 -12 35q-10 6 -33 1q-9 -1 -36 -11l-3 69l17 6q16 6 35 9q57 7 95 -24q20 -15 28 -44q3 -13 3 -26q1 -29 -18 -55q-20 -21 -35 -29t-55 -19z" />
    <glyph glyph-name="uni1EED" unicode="&#x1eed;" horiz-adv-x="550" 
d="M518 500l-9 -295q0 -69 -49 -130q-64 -81 -179 -70q-146 14 -204 109q-27 44 -31 94l-28 402l207 11l20 -372q10 -55 48 -51q39 4 39 56v369l190 -9v-10q1 1 3 1q23 6 25 20q3 17 -24 52l66 64q16 2 37 -42q23 -48 17 -97q-8 -53 -60 -81q-21 -12 -49 -18q-9 -2 -19 -3z
M294 759q26 7 33 31q4 27 -11 35q-10 6 -33 1q-9 -1 -36 -11l-4 69l18 6q15 6 35 9q57 7 95 -24q20 -15 27 -44q4 -13 4 -26q1 -29 -18 -55q-20 -21 -35.5 -29t-54.5 -19z" />
    <glyph glyph-name="uni1EEE" unicode="&#x1eee;" horiz-adv-x="550" 
d="M518 500l-9 -295q0 -69 -49 -130q-64 -81 -179 -70q-146 14 -204 109q-27 44 -31 94l-28 402l207 11l20 -372q10 -55 48 -51q39 4 39 56v369l190 -9v-10q1 1 3 1q23 6 25 20q3 17 -24 52l66 64q16 2 37 -42q23 -48 17 -97q-8 -53 -60 -81q-21 -12 -49 -18q-9 -2 -19 -3z
M327 806q14 2 18 30l2 11l88 2l2 -8l-21 -86q-29 -42 -66 -48q-63 -7 -126 46q-6 -1 -8 -23v-6l-91 -9q0 13 6 46q3 18 11 42q19 49 59 55l12 1q50 -1 114 -53z" />
    <glyph glyph-name="uni1EEF" unicode="&#x1eef;" horiz-adv-x="550" 
d="M518 500l-9 -295q0 -69 -49 -130q-64 -81 -179 -70q-146 14 -204 109q-27 44 -31 94l-28 402l207 11l20 -372q10 -55 48 -51q39 4 39 56v369l190 -9v-10q1 1 3 1q23 6 25 20q3 17 -24 52l66 64q16 2 37 -42q23 -48 17 -97q-8 -53 -60 -81q-21 -12 -49 -18q-9 -2 -19 -3z
M327 806q14 3 18 31l2 10l89 2l1 -7l-21 -87q-29 -42 -66 -48q-63 -6 -126 46q-6 -1 -8 -22v-7l-91 -8q0 12 6 46q3 17 11 42q19 48 59 55l12 1q50 -1 114 -54z" />
    <glyph glyph-name="uni1EF0" unicode="&#x1ef0;" horiz-adv-x="550" 
d="M518 500l-9 -295q0 -69 -49 -130q-64 -81 -179 -70q-146 14 -204 109q-27 44 -31 94l-28 402l207 11l20 -372q10 -55 48 -51q39 4 39 56v369l190 -9v-10q1 1 3 1q23 6 25 20q3 17 -24 52l66 64q16 2 37 -42q23 -48 17 -97q-8 -53 -60 -81q-21 -12 -49 -18q-9 -2 -19 -3z
M254 -78q18 25 44 25q30 0 49 -13q22 -14 22 -41q0 -29 -22 -54q-22 -26 -49 -26q-61 0 -61 56q0 30 17 53z" />
    <glyph glyph-name="uni1EF1" unicode="&#x1ef1;" horiz-adv-x="550" 
d="M518 500l-9 -295q0 -69 -49 -130q-64 -81 -179 -70q-146 14 -204 109q-27 44 -31 94l-28 402l207 11l20 -372q10 -55 48 -51q39 4 39 56v369l190 -9v-10q1 1 3 1q23 6 25 20q3 17 -24 52l66 64q16 2 37 -42q23 -48 17 -97q-8 -53 -60 -81q-21 -12 -49 -18q-9 -2 -19 -3z
M254 -78q18 25 44 25q30 0 49 -13q22 -14 22 -41q0 -29 -22 -54q-22 -26 -49 -26q-61 0 -61 56q0 30 17 53z" />
    <glyph glyph-name="Ygrave" unicode="&#x1ef2;" horiz-adv-x="546" 
d="M399 175l-4 -171l-243 8l-6 163l-149 439l209 12l66 -251l74 263l191 -34zM349 765l-44 -78l-201 103l41 109z" />
    <glyph glyph-name="ygrave" unicode="&#x1ef3;" horiz-adv-x="546" 
d="M399 175l-4 -171l-243 8l-6 163l-149 439l209 12l66 -251l74 263l191 -34zM349 765l-44 -78l-201 103l41 109z" />
    <glyph glyph-name="uni1EF4" unicode="&#x1ef4;" horiz-adv-x="546" 
d="M399 175l-4 -171l-243 8l-6 163l-149 439l209 12l66 -251l74 263l191 -34zM218 -78q18 25 44 25q30 0 49 -13q22 -14 22 -41q0 -29 -22 -54q-22 -26 -49 -26q-61 0 -61 56q0 30 17 53z" />
    <glyph glyph-name="uni1EF5" unicode="&#x1ef5;" horiz-adv-x="546" 
d="M399 175l-4 -171l-243 8l-6 163l-149 439l209 12l66 -251l74 263l191 -34zM218 -78q18 25 44 25q30 0 49 -13q22 -14 22 -41q0 -29 -22 -54q-22 -26 -49 -26q-61 0 -61 56q0 30 17 53z" />
    <glyph glyph-name="uni1EF6" unicode="&#x1ef6;" horiz-adv-x="546" 
d="M399 175l-4 -171l-243 8l-6 163l-149 439l209 12l66 -251l74 263l191 -34zM228 759q26 7 34 31q3 27 -12 35q-10 6 -33 1q-9 -1 -36 -11l-3 69l17 6q16 6 35 9q57 7 95 -24q20 -15 28 -44q3 -13 3 -26q1 -29 -18 -55q-20 -21 -35 -29t-55 -19z" />
    <glyph glyph-name="uni1EF7" unicode="&#x1ef7;" horiz-adv-x="546" 
d="M399 175l-4 -171l-243 8l-6 163l-149 439l209 12l66 -251l74 263l191 -34zM228 759q26 7 34 31q3 27 -11 35q-11 6 -33 1q-10 -1 -36 -11l-4 69l17 6q16 6 35 9q58 7 96 -24q19 -15 27 -44q3 -13 3 -26q1 -29 -18 -55q-19 -21 -34.5 -29t-54.5 -19z" />
    <glyph glyph-name="uni1EF8" unicode="&#x1ef8;" horiz-adv-x="546" 
d="M399 175l-4 -171l-243 8l-6 163l-149 439l209 12l66 -251l74 263l191 -34zM313 806q14 2 18 30l2 11l88 2l2 -8l-21 -86q-29 -42 -66 -48q-63 -7 -126 46q-6 -1 -8 -23v-6l-91 -9q0 13 6 46q3 18 11 42q19 49 59 55l12 1q50 -1 114 -53z" />
    <glyph glyph-name="uni1EF9" unicode="&#x1ef9;" horiz-adv-x="546" 
d="M399 175l-4 -171l-243 8l-6 163l-149 439l209 12l66 -251l74 263l191 -34zM313 806q14 2 18 30l2 11l89 2l1 -8l-21 -86q-29 -42 -66 -48q-62 -7 -125 46q-7 -1 -9 -23v-6l-91 -9q0 13 6 46q3 18 11 42q19 49 59 55l12 1q50 -1 114 -53z" />
  </font>
</defs>
</svg>
